<svg class="main-svg" xmlns="http://www.w3.org/2000/svg" xmlns:xlink="http://www.w3.org/1999/xlink" width="1800" height="1520" style="" viewBox="0 0 900 760"><rect x="0" y="0" width="900" height="760" style="fill: rgb(255, 255, 255); fill-opacity: 1;"/><defs id="defs-698c9c"><g class="clips"><clipPath id="clip698c9cxyplot" class="plotclip"><rect width="485" height="593"/></clipPath><clipPath class="axesclip" id="clip698c9cx"><rect x="245" y="0" width="485" height="760"/></clipPath><clipPath class="axesclip" id="clip698c9cy"><rect x="0" y="55" width="900" height="593"/></clipPath><clipPath class="axesclip" id="clip698c9cxy"><rect x="245" y="55" width="485" height="593"/></clipPath></g><g class="gradients"/><g class="patterns"/></defs><g class="bglayer"/><g class="layer-below"><g class="imagelayer"/><g class="shapelayer"><g class="shape-group" data-index="0"><path data-index="0" fill-rule="evenodd" d="M245,639.105H730V600.5600000000001H245Z" style="opacity: 1; stroke: rgb(0, 0, 0); stroke-opacity: 0; fill: rgb(249, 250, 251); fill-opacity: 1; stroke-width: 0px;"/></g></g></g><g class="cartesianlayer"><g class="subplot xy"><g class="layer-subplot"><g class="shapelayer"/><g class="imagelayer"/></g><g class="minor-gridlayer"><g class="x"/><g class="y"/></g><g class="gridlayer"><g class="x"><path class="xgrid crisp" transform="translate(319.46,0)" d="M0,55v593" style="stroke: rgb(229, 231, 235); stroke-opacity: 1; stroke-width: 1px;"/><path class="xgrid crisp" transform="translate(402.99,0)" d="M0,55v593" style="stroke: rgb(229, 231, 235); stroke-opacity: 1; stroke-width: 1px;"/><path class="xgrid crisp" transform="translate(473.61,0)" d="M0,55v593" style="stroke: rgb(229, 231, 235); stroke-opacity: 1; stroke-width: 1px;"/><path class="xgrid crisp" transform="translate(534.79,0)" d="M0,55v593" style="stroke: rgb(229, 231, 235); stroke-opacity: 1; stroke-width: 1px;"/><path class="xgrid crisp" transform="translate(588.75,0)" d="M0,55v593" style="stroke: rgb(229, 231, 235); stroke-opacity: 1; stroke-width: 1px;"/><path class="xgrid crisp" transform="translate(637.02,0)" d="M0,55v593" style="stroke: rgb(229, 231, 235); stroke-opacity: 1; stroke-width: 1px;"/><path class="xgrid crisp" transform="translate(680.69,0)" d="M0,55v593" style="stroke: rgb(229, 231, 235); stroke-opacity: 1; stroke-width: 1px;"/><path class="xgrid crisp" transform="translate(720.55,0)" d="M0,55v593" style="stroke: rgb(229, 231, 235); stroke-opacity: 1; stroke-width: 1px;"/></g><g class="y"/></g><g class="zerolinelayer"/><g class="layer-between"><g class="shapelayer"/><g class="imagelayer"/></g><path class="xlines-below"/><path class="ylines-below"/><g class="overlines-below"/><g class="xaxislayer-below"/><g class="yaxislayer-below"/><g class="overaxes-below"/><g class="overplot"><g class="xy" transform="translate(245,55)" clip-path="url(#clip698c9cxyplot)"><g class="scatterlayer mlayer"><g class="trace scatter trace2aa938" style="stroke-miterlimit: 2; opacity: 1;"><g class="fills"/><g class="errorbars"><g class="errorbar"><path class="xerror" d="M282,31.65v6m0,-3H143.4m0,-3v6" style="vector-effect: none; stroke-width: 1.3px; stroke: rgb(37, 99, 235); stroke-opacity: 1;"/></g><g class="errorbar"><path class="xerror" d="M304.55,68.83v6m0,-3H214.93m0,-3v6" style="vector-effect: none; stroke-width: 1.3px; stroke: rgb(37, 99, 235); stroke-opacity: 1;"/></g><g class="errorbar"><path class="xerror" d="M308.61,106.02v6m0,-3H221.9m0,-3v6" style="vector-effect: none; stroke-width: 1.3px; stroke: rgb(37, 99, 235); stroke-opacity: 1;"/></g><g class="errorbar"><path class="xerror" d="M280.15,143.2v6m0,-3H241.35m0,-3v6" style="vector-effect: none; stroke-width: 1.3px; stroke: rgb(37, 99, 235); stroke-opacity: 1;"/></g><g class="errorbar"><path class="xerror" d="M274.69,180.39v6m0,-3H242.65m0,-3v6" style="vector-effect: none; stroke-width: 1.3px; stroke: rgb(37, 99, 235); stroke-opacity: 1;"/></g></g><g class="lines"/><g class="points"><path class="point" transform="translate(212.7,34.65)" d="M4,0A4,4 0 1,1 0,-4A4,4 0 0,1 4,0Z" style="opacity: 0.7; stroke-width: 0.7px; fill: rgb(37, 99, 235); fill-opacity: 1; stroke: rgb(255, 255, 255); stroke-opacity: 1;"/><path class="point" transform="translate(259.74,71.83)" d="M4,0A4,4 0 1,1 0,-4A4,4 0 0,1 4,0Z" style="opacity: 0.7; stroke-width: 0.7px; fill: rgb(37, 99, 235); fill-opacity: 1; stroke: rgb(255, 255, 255); stroke-opacity: 1;"/><path class="point" transform="translate(265.26,109.02)" d="M4,0A4,4 0 1,1 0,-4A4,4 0 0,1 4,0Z" style="opacity: 0.7; stroke-width: 0.7px; fill: rgb(37, 99, 235); fill-opacity: 1; stroke: rgb(255, 255, 255); stroke-opacity: 1;"/><path class="point" transform="translate(260.75,146.2)" d="M4,0A4,4 0 1,1 0,-4A4,4 0 0,1 4,0Z" style="opacity: 0.7; stroke-width: 0.7px; fill: rgb(37, 99, 235); fill-opacity: 1; stroke: rgb(255, 255, 255); stroke-opacity: 1;"/><path class="point" transform="translate(258.67,183.39)" d="M8.45,0L0,8.45L-8.45,0L0,-8.45Z" style="opacity: 0.7; stroke-width: 0.7px; fill: rgb(37, 99, 235); fill-opacity: 1; stroke: rgb(255, 255, 255); stroke-opacity: 1;"/></g><g class="text"><g class="textpoint" transform="translate(6,2.5)"><text x="212.7" y="34.65" text-anchor="start" style="font-family: Arial; font-size: 10px; fill: rgb(55, 65, 81); fill-opacity: 1; white-space: pre;">1.35 (1.16-1.57)</text></g><g class="textpoint" transform="translate(6,2.5)"><text x="259.74" y="71.83" text-anchor="start" style="font-family: Arial; font-size: 10px; fill: rgb(55, 65, 81); fill-opacity: 1; white-space: pre;">1.50 (1.36-1.65)</text></g><g class="textpoint" transform="translate(6,2.5)"><text x="265.26" y="109.02" text-anchor="start" style="font-family: Arial; font-size: 10px; fill: rgb(55, 65, 81); fill-opacity: 1; white-space: pre;">1.52 (1.38-1.67)</text></g><g class="textpoint" transform="translate(6,2.5)"><text x="260.75" y="146.2" text-anchor="start" style="font-family: Arial; font-size: 10px; fill: rgb(55, 65, 81); fill-opacity: 1; white-space: pre;">1.50 (1.44-1.57)</text></g><g class="textpoint" transform="translate(9.125,2.5)"><text x="258.67" y="183.39" text-anchor="start" style="font-family: Arial; font-size: 10px; fill: rgb(55, 65, 81); fill-opacity: 1; white-space: pre;">1.49 (1.44-1.55)</text></g></g></g><g class="trace scatter trace2f4e77" style="stroke-miterlimit: 2; opacity: 1;"><g class="fills"/><g class="errorbars"><g class="errorbar"><path class="xerror" d="M127.9,217.57v6m0,-3H85.23m0,-3v6" style="vector-effect: none; stroke-width: 1.3px; stroke: rgb(22, 163, 74); stroke-opacity: 1;"/></g><g class="errorbar"><path class="xerror" d="M185.33,254.75v6m0,-3H29.88m0,-3v6" style="vector-effect: none; stroke-width: 1.3px; stroke: rgb(22, 163, 74); stroke-opacity: 1;"/></g><g class="errorbar"><path class="xerror" d="M159.37,291.94v6m0,-3H76.53m0,-3v6" style="vector-effect: none; stroke-width: 1.3px; stroke: rgb(22, 163, 74); stroke-opacity: 1;"/></g><g class="errorbar"><path class="xerror" d="M238.96,329.12v6m0,-3H183.32m0,-3v6" style="vector-effect: none; stroke-width: 1.3px; stroke: rgb(22, 163, 74); stroke-opacity: 1;"/></g><g class="errorbar"><path class="xerror" d="M198.67,366.31v6m0,-3H77.51m0,-3v6" style="vector-effect: none; stroke-width: 1.3px; stroke: rgb(22, 163, 74); stroke-opacity: 1;"/></g></g><g class="lines"/><g class="points"><path class="point" transform="translate(106.56,220.57)" d="M4,0A4,4 0 1,1 0,-4A4,4 0 0,1 4,0Z" style="opacity: 0.7; stroke-width: 0.7px; fill: rgb(22, 163, 74); fill-opacity: 1; stroke: rgb(255, 255, 255); stroke-opacity: 1;"/><path class="point" transform="translate(107.6,257.75)" d="M4,0A4,4 0 1,1 0,-4A4,4 0 0,1 4,0Z" style="opacity: 0.7; stroke-width: 0.7px; fill: rgb(22, 163, 74); fill-opacity: 1; stroke: rgb(255, 255, 255); stroke-opacity: 1;"/><path class="point" transform="translate(117.95,294.94)" d="M4,0A4,4 0 1,1 0,-4A4,4 0 0,1 4,0Z" style="opacity: 0.7; stroke-width: 0.7px; fill: rgb(22, 163, 74); fill-opacity: 1; stroke: rgb(255, 255, 255); stroke-opacity: 1;"/><path class="point" transform="translate(211.14,332.12)" d="M4,0A4,4 0 1,1 0,-4A4,4 0 0,1 4,0Z" style="opacity: 0.7; stroke-width: 0.7px; fill: rgb(22, 163, 74); fill-opacity: 1; stroke: rgb(255, 255, 255); stroke-opacity: 1;"/><path class="point" transform="translate(138.09,369.31)" d="M8.45,0L0,8.45L-8.45,0L0,-8.45Z" style="opacity: 0.7; stroke-width: 0.7px; fill: rgb(22, 163, 74); fill-opacity: 1; stroke: rgb(255, 255, 255); stroke-opacity: 1;"/></g><g class="text"><g class="textpoint" transform="translate(6,2.5)"><text x="106.56" y="220.57" text-anchor="start" style="font-family: Arial; font-size: 10px; fill: rgb(55, 65, 81); fill-opacity: 1; white-space: pre;">1.07 (1.02-1.12)</text></g><g class="textpoint" transform="translate(6,2.5)"><text x="107.6" y="257.75" text-anchor="start" style="font-family: Arial; font-size: 10px; fill: rgb(55, 65, 81); fill-opacity: 1; white-space: pre;">1.08 (0.91-1.27)</text></g><g class="textpoint" transform="translate(6,2.5)"><text x="117.95" y="294.94" text-anchor="start" style="font-family: Arial; font-size: 10px; fill: rgb(55, 65, 81); fill-opacity: 1; white-space: pre;">1.10 (1.00-1.20)</text></g><g class="textpoint" transform="translate(6,2.5)"><text x="211.14" y="332.12" text-anchor="start" style="font-family: Arial; font-size: 10px; fill: rgb(55, 65, 81); fill-opacity: 1; white-space: pre;">1.35 (1.27-1.43)</text></g><g class="textpoint" transform="translate(9.125,2.5)"><text x="138.09" y="369.31" text-anchor="start" style="font-family: Arial; font-size: 10px; fill: rgb(55, 65, 81); fill-opacity: 1; white-space: pre;">1.15 (1.01-1.31)</text></g></g></g><g class="trace scatter trace426903" style="stroke-miterlimit: 2; opacity: 1;"><g class="fills"/><g class="errorbars"><g class="errorbar"><path class="xerror" d="M289.63,403.49v6m0,-3H196.58m0,-3v6" style="vector-effect: none; stroke-width: 1.3px; stroke: rgb(225, 29, 72); stroke-opacity: 1;"/></g><g class="errorbar"><path class="xerror" d="M317.39,440.67v6m0,-3H186.7m0,-3v6" style="vector-effect: none; stroke-width: 1.3px; stroke: rgb(225, 29, 72); stroke-opacity: 1;"/></g><g class="errorbar"><path class="xerror" d="M343.24,477.86v6m0,-3H258.77m0,-3v6" style="vector-effect: none; stroke-width: 1.3px; stroke: rgb(225, 29, 72); stroke-opacity: 1;"/></g><g class="errorbar"><path class="xerror" d="M428.09,515.04v6m0,-3H383.03m0,-3v6" style="vector-effect: none; stroke-width: 1.3px; stroke: rgb(225, 29, 72); stroke-opacity: 1;"/></g><g class="errorbar"><path class="xerror" d="M391.52,552.23v6m0,-3H213.76m0,-3v6" style="vector-effect: none; stroke-width: 1.3px; stroke: rgb(225, 29, 72); stroke-opacity: 1;"/></g></g><g class="lines"/><g class="points"><path class="point" transform="translate(243.1,406.49)" d="M4,0A4,4 0 1,1 0,-4A4,4 0 0,1 4,0Z" style="opacity: 0.7; stroke-width: 0.7px; fill: rgb(225, 29, 72); fill-opacity: 1; stroke: rgb(255, 255, 255); stroke-opacity: 1;"/><path class="point" transform="translate(252.04,443.67)" d="M4,0A4,4 0 1,1 0,-4A4,4 0 0,1 4,0Z" style="opacity: 0.7; stroke-width: 0.7px; fill: rgb(225, 29, 72); fill-opacity: 1; stroke: rgb(255, 255, 255); stroke-opacity: 1;"/><path class="point" transform="translate(301.01,480.86)" d="M4,0A4,4 0 1,1 0,-4A4,4 0 0,1 4,0Z" style="opacity: 0.7; stroke-width: 0.7px; fill: rgb(225, 29, 72); fill-opacity: 1; stroke: rgb(255, 255, 255); stroke-opacity: 1;"/><path class="point" transform="translate(405.56,518.04)" d="M4,0A4,4 0 1,1 0,-4A4,4 0 0,1 4,0Z" style="opacity: 0.7; stroke-width: 0.7px; fill: rgb(225, 29, 72); fill-opacity: 1; stroke: rgb(255, 255, 255); stroke-opacity: 1;"/><path class="point" transform="translate(302.64,555.23)" d="M8.45,0L0,8.45L-8.45,0L0,-8.45Z" style="opacity: 0.7; stroke-width: 0.7px; fill: rgb(225, 29, 72); fill-opacity: 1; stroke: rgb(255, 255, 255); stroke-opacity: 1;"/></g><g class="text"><g class="textpoint" transform="translate(6,2.5)"><text x="243.1" y="406.49" text-anchor="start" style="font-family: Arial; font-size: 10px; fill: rgb(55, 65, 81); fill-opacity: 1; white-space: pre;">1.44 (1.31-1.60)</text></g><g class="textpoint" transform="translate(6,2.5)"><text x="252.04" y="443.67" text-anchor="start" style="font-family: Arial; font-size: 10px; fill: rgb(55, 65, 81); fill-opacity: 1; white-space: pre;">1.47 (1.28-1.70)</text></g><g class="textpoint" transform="translate(6,2.5)"><text x="301.01" y="480.86" text-anchor="start" style="font-family: Arial; font-size: 10px; fill: rgb(55, 65, 81); fill-opacity: 1; white-space: pre;">1.64 (1.50-1.80)</text></g><g class="textpoint" transform="translate(6,2.5)"><text x="405.56" y="518.04" text-anchor="start" style="font-family: Arial; font-size: 10px; fill: rgb(55, 65, 81); fill-opacity: 1; white-space: pre;">2.06 (1.96-2.16)</text></g><g class="textpoint" transform="translate(9.125,2.5)"><text x="302.64" y="555.23" text-anchor="start" style="font-family: Arial; font-size: 10px; fill: rgb(55, 65, 81); fill-opacity: 1; white-space: pre;">1.65 (1.36-2.00)</text></g></g></g></g></g></g><g class="zerolinelayer-above"/><path class="xlines-above crisp" d="M244,648.5H730" style="fill: none; stroke-width: 1px; stroke: rgb(156, 163, 175); stroke-opacity: 1;"/><path class="ylines-above crisp" d="M244.5,55V648" style="fill: none; stroke-width: 1px; stroke: rgb(156, 163, 175); stroke-opacity: 1;"/><g class="overlines-above"/><g class="xaxislayer-above"><path class="xtick ticks crisp" d="M0,649v5" transform="translate(319.46,0)" style="stroke: rgb(68, 68, 68); stroke-opacity: 1; stroke-width: 1px;"/><path class="xtick ticks crisp" d="M0,649v5" transform="translate(402.99,0)" style="stroke: rgb(68, 68, 68); stroke-opacity: 1; stroke-width: 1px;"/><path class="xtick ticks crisp" d="M0,649v5" transform="translate(473.61,0)" style="stroke: rgb(68, 68, 68); stroke-opacity: 1; stroke-width: 1px;"/><path class="xtick ticks crisp" d="M0,649v5" transform="translate(534.79,0)" style="stroke: rgb(68, 68, 68); stroke-opacity: 1; stroke-width: 1px;"/><path class="xtick ticks crisp" d="M0,649v5" transform="translate(588.75,0)" style="stroke: rgb(68, 68, 68); stroke-opacity: 1; stroke-width: 1px;"/><path class="xtick ticks crisp" d="M0,649v5" transform="translate(637.02,0)" style="stroke: rgb(68, 68, 68); stroke-opacity: 1; stroke-width: 1px;"/><path class="xtick ticks crisp" d="M0,649v5" transform="translate(680.69,0)" style="stroke: rgb(68, 68, 68); stroke-opacity: 1; stroke-width: 1px;"/><path class="xtick ticks crisp" d="M0,649v5" transform="translate(720.55,0)" style="stroke: rgb(68, 68, 68); stroke-opacity: 1; stroke-width: 1px;"/><g class="xtick"><text text-anchor="middle" x="0" y="668.4" transform="translate(319.46,0)" style="font-family: Arial; font-size: 12px; fill: rgb(17, 24, 39); fill-opacity: 1; white-space: pre;">1</text></g><g class="xtick"><text text-anchor="middle" x="0" y="668.4" style="font-family: Arial; font-size: 12px; fill: rgb(17, 24, 39); fill-opacity: 1; white-space: pre;" transform="translate(402.99,0)">1.2</text></g><g class="xtick"><text text-anchor="middle" x="0" y="668.4" style="font-family: Arial; font-size: 12px; fill: rgb(17, 24, 39); fill-opacity: 1; white-space: pre;" transform="translate(473.61,0)">1.4</text></g><g class="xtick"><text text-anchor="middle" x="0" y="668.4" style="font-family: Arial; font-size: 12px; fill: rgb(17, 24, 39); fill-opacity: 1; white-space: pre;" transform="translate(534.79,0)">1.6</text></g><g class="xtick"><text text-anchor="middle" x="0" y="668.4" style="font-family: Arial; font-size: 12px; fill: rgb(17, 24, 39); fill-opacity: 1; white-space: pre;" transform="translate(588.75,0)">1.8</text></g><g class="xtick"><text text-anchor="middle" x="0" y="668.4" style="font-family: Arial; font-size: 12px; fill: rgb(17, 24, 39); fill-opacity: 1; white-space: pre;" transform="translate(637.02,0)">2</text></g><g class="xtick"><text text-anchor="middle" x="0" y="668.4" style="font-family: Arial; font-size: 12px; fill: rgb(17, 24, 39); fill-opacity: 1; white-space: pre;" transform="translate(680.69,0)">2.2</text></g><g class="xtick"><text text-anchor="middle" x="0" y="668.4" style="font-family: Arial; font-size: 12px; fill: rgb(17, 24, 39); fill-opacity: 1; white-space: pre;" transform="translate(720.55,0)">2.4</text></g></g><g class="yaxislayer-above"><g class="ytick"><text text-anchor="end" x="241.6" y="4.199999999999999" transform="translate(0,610.23)" style="font-family: Arial; font-size: 12px; fill: rgb(17, 24, 39); fill-opacity: 1; white-space: pre;">Both connected | Random effects</text></g><g class="ytick"><text text-anchor="end" x="241.6" y="4.199999999999999" transform="translate(0,573.04)" style="font-family: Arial; font-size: 12px; fill: rgb(17, 24, 39); fill-opacity: 1; white-space: pre;">Both connected | SHARE</text></g><g class="ytick"><text text-anchor="end" x="241.6" y="4.199999999999999" transform="translate(0,535.86)" style="font-family: Arial; font-size: 12px; fill: rgb(17, 24, 39); fill-opacity: 1; white-space: pre;">Both connected | HRS</text></g><g class="ytick"><text text-anchor="end" x="241.6" y="4.199999999999999" transform="translate(0,498.67)" style="font-family: Arial; font-size: 12px; fill: rgb(17, 24, 39); fill-opacity: 1; white-space: pre;">Both connected | ELSA</text></g><g class="ytick"><text text-anchor="end" x="241.6" y="4.199999999999999" transform="translate(0,461.49)" style="font-family: Arial; font-size: 12px; fill: rgb(17, 24, 39); fill-opacity: 1; white-space: pre;">Both connected | CHARLS</text></g><g class="ytick"><text text-anchor="end" x="241.6" y="4.199999999999999" transform="translate(0,424.31)" style="font-family: Arial; font-size: 12px; fill: rgb(17, 24, 39); fill-opacity: 1; white-space: pre;">Social only | Random effects</text></g><g class="ytick"><text text-anchor="end" x="241.6" y="4.199999999999999" transform="translate(0,387.12)" style="font-family: Arial; font-size: 12px; fill: rgb(17, 24, 39); fill-opacity: 1; white-space: pre;">Social only | SHARE</text></g><g class="ytick"><text text-anchor="end" x="241.6" y="4.199999999999999" transform="translate(0,349.94)" style="font-family: Arial; font-size: 12px; fill: rgb(17, 24, 39); fill-opacity: 1; white-space: pre;">Social only | HRS</text></g><g class="ytick"><text text-anchor="end" x="241.6" y="4.199999999999999" transform="translate(0,312.75)" style="font-family: Arial; font-size: 12px; fill: rgb(17, 24, 39); fill-opacity: 1; white-space: pre;">Social only | ELSA</text></g><g class="ytick"><text text-anchor="end" x="241.6" y="4.199999999999999" transform="translate(0,275.57)" style="font-family: Arial; font-size: 12px; fill: rgb(17, 24, 39); fill-opacity: 1; white-space: pre;">Social only | CHARLS</text></g><g class="ytick"><text text-anchor="end" x="241.6" y="4.199999999999999" transform="translate(0,238.39)" style="font-family: Arial; font-size: 12px; fill: rgb(17, 24, 39); fill-opacity: 1; white-space: pre;">Internet only | Random effects</text></g><g class="ytick"><text text-anchor="end" x="241.6" y="4.199999999999999" transform="translate(0,201.2)" style="font-family: Arial; font-size: 12px; fill: rgb(17, 24, 39); fill-opacity: 1; white-space: pre;">Internet only | SHARE</text></g><g class="ytick"><text text-anchor="end" x="241.6" y="4.199999999999999" transform="translate(0,164.01999999999998)" style="font-family: Arial; font-size: 12px; fill: rgb(17, 24, 39); fill-opacity: 1; white-space: pre;">Internet only | HRS</text></g><g class="ytick"><text text-anchor="end" x="241.6" y="4.199999999999999" transform="translate(0,126.83)" style="font-family: Arial; font-size: 12px; fill: rgb(17, 24, 39); fill-opacity: 1; white-space: pre;">Internet only | ELSA</text></g><g class="ytick"><text text-anchor="end" x="241.6" y="4.199999999999999" transform="translate(0,89.65)" style="font-family: Arial; font-size: 12px; fill: rgb(17, 24, 39); fill-opacity: 1; white-space: pre;">Internet only | CHARLS</text></g></g><g class="overaxes-above"/></g></g><g class="polarlayer"/><g class="smithlayer"/><g class="ternarylayer"/><g class="geolayer"/><g class="funnelarealayer"/><g class="pielayer"/><g class="iciclelayer"/><g class="treemaplayer"/><g class="sunburstlayer"/><g class="glimages"/><defs id="topdefs-698c9c"><g class="clips"/><clipPath id="legend698c9c"><rect width="343" height="29" x="0" y="0"/></clipPath></defs><g class="layer-above"><g class="imagelayer"/><g class="shapelayer"/></g><g class="infolayer"><g class="legend" pointer-events="all" transform="translate(316,719.1600000000001)"><rect class="bg" shape-rendering="crispEdges" style="stroke: rgb(68, 68, 68); stroke-opacity: 1; fill: rgb(255, 255, 255); fill-opacity: 1; stroke-width: 0px;" width="343" height="29" x="0" y="0"/><g class="scrollbox" transform="" clip-path="url(#legend698c9c)"><g class="groups"><g class="traces" transform="translate(0,14.5)" style="opacity: 1;"><text class="legendtext" text-anchor="start" x="40" y="4.680000000000001" style="font-family: Arial; font-size: 12px; fill: rgb(17, 24, 39); fill-opacity: 1; white-space: pre;">Internet only</text><g class="layers" style="opacity: 1;"><g class="legendfill"/><g class="legendlines"/><g class="legendsymbols"><g class="legendpoints"><path class="scatterpts" transform="translate(20,0)" d="M4.5,0A4.5,4.5 0 1,1 0,-4.5A4.5,4.5 0 0,1 4.5,0Z" style="opacity: 0.7; stroke-width: 0.7px; fill: rgb(37, 99, 235); fill-opacity: 1; stroke: rgb(255, 255, 255); stroke-opacity: 1;"/></g></g></g><rect class="legendtoggle" x="0" y="-9.5" width="108.546875" height="19" style="fill: rgb(0, 0, 0); fill-opacity: 0;"/></g><g class="traces" transform="translate(111.046875,14.5)" style="opacity: 1;"><text class="legendtext" text-anchor="start" x="40" y="4.680000000000001" style="font-family: Arial; font-size: 12px; fill: rgb(17, 24, 39); fill-opacity: 1; white-space: pre;">Social only</text><g class="layers" style="opacity: 1;"><g class="legendfill"/><g class="legendlines"/><g class="legendsymbols"><g class="legendpoints"><path class="scatterpts" transform="translate(20,0)" d="M4.5,0A4.5,4.5 0 1,1 0,-4.5A4.5,4.5 0 0,1 4.5,0Z" style="opacity: 0.7; stroke-width: 0.7px; fill: rgb(22, 163, 74); fill-opacity: 1; stroke: rgb(255, 255, 255); stroke-opacity: 1;"/></g></g></g><rect class="legendtoggle" x="0" y="-9.5" width="100.53125" height="19" style="fill: rgb(0, 0, 0); fill-opacity: 0;"/></g><g class="traces" transform="translate(214.078125,14.5)" style="opacity: 1;"><text class="legendtext" text-anchor="start" x="40" y="4.680000000000001" style="font-family: Arial; font-size: 12px; fill: rgb(17, 24, 39); fill-opacity: 1; white-space: pre;">Both connected</text><g class="layers" style="opacity: 1;"><g class="legendfill"/><g class="legendlines"/><g class="legendsymbols"><g class="legendpoints"><path class="scatterpts" transform="translate(20,0)" d="M4.5,0A4.5,4.5 0 1,1 0,-4.5A4.5,4.5 0 0,1 4.5,0Z" style="opacity: 0.7; stroke-width: 0.7px; fill: rgb(225, 29, 72); fill-opacity: 1; stroke: rgb(255, 255, 255); stroke-opacity: 1;"/></g></g></g><rect class="legendtoggle" x="0" y="-9.5" width="126.22265625" height="19" style="fill: rgb(0, 0, 0); fill-opacity: 0;"/></g></g></g><rect class="scrollbar" rx="20" ry="3" width="0" height="0" style="fill: rgb(128, 139, 164); fill-opacity: 1;" x="0" y="0"/></g><g class="g-gtitle"><text class="gtitle" x="9" y="27.5" text-anchor="start" dy="0em" style="opacity: 1; font-family: Arial; font-size: 18px; fill: rgb(17, 24, 39); fill-opacity: 1; white-space: pre;">Joint connectedness profiles</text></g><g class="g-xtitle"><text class="xtitle" x="487.5" y="695.700390625" text-anchor="middle" style="opacity: 1; font-family: Arial; font-size: 14px; fill: rgb(17, 24, 39); fill-opacity: 1; white-space: pre;">Odds ratio for next-wave healthy ageing</text></g><g class="g-ytitle"/></g></svg>