<svg class="main-svg" xmlns="http://www.w3.org/2000/svg" xmlns:xlink="http://www.w3.org/1999/xlink" width="1800" height="1040" style="" viewBox="0 0 900 520"><rect x="0" y="0" width="900" height="520" style="fill: rgb(255, 255, 255); fill-opacity: 1;"/><defs id="defs-59dc02"><g class="clips"><clipPath id="clip59dc02xyplot" class="plotclip"><rect width="500" height="366"/></clipPath><clipPath class="axesclip" id="clip59dc02x"><rect x="230" y="0" width="500" height="520"/></clipPath><clipPath class="axesclip" id="clip59dc02y"><rect x="0" y="55" width="900" height="366"/></clipPath><clipPath class="axesclip" id="clip59dc02xy"><rect x="230" y="55" width="500" height="366"/></clipPath></g><g class="gradients"/><g class="patterns"/></defs><g class="bglayer"/><g class="layer-below"><g class="imagelayer"/><g class="shapelayer"/></g><g class="cartesianlayer"><g class="subplot xy"><g class="layer-subplot"><g class="shapelayer"/><g class="imagelayer"/></g><g class="minor-gridlayer"><g class="x"/><g class="y"/></g><g class="gridlayer"><g class="x"><path class="xgrid crisp" transform="translate(344.54,0)" d="M0,55v366" style="stroke: rgb(229, 231, 235); stroke-opacity: 1; stroke-width: 1px;"/><path class="xgrid crisp" transform="translate(449.77,0)" d="M0,55v366" style="stroke: rgb(229, 231, 235); stroke-opacity: 1; stroke-width: 1px;"/><path class="xgrid crisp" transform="translate(538.75,0)" d="M0,55v366" style="stroke: rgb(229, 231, 235); stroke-opacity: 1; stroke-width: 1px;"/><path class="xgrid crisp" transform="translate(615.8199999999999,0)" d="M0,55v366" style="stroke: rgb(229, 231, 235); stroke-opacity: 1; stroke-width: 1px;"/><path class="xgrid crisp" transform="translate(683.8,0)" d="M0,55v366" style="stroke: rgb(229, 231, 235); stroke-opacity: 1; stroke-width: 1px;"/></g><g class="y"/></g><g class="zerolinelayer"/><g class="layer-between"><g class="shapelayer"/><g class="imagelayer"/></g><path class="xlines-below"/><path class="ylines-below"/><g class="overlines-below"/><g class="xaxislayer-below"/><g class="yaxislayer-below"/><g class="overaxes-below"/><g class="overplot"><g class="xy" transform="translate(230,55)" clip-path="url(#clip59dc02xyplot)"><g class="scatterlayer mlayer"><g class="trace scatter trace44d6c5" style="stroke-miterlimit: 2; opacity: 1;"><g class="fills"/><g class="errorbars"><g class="errorbar"><path class="xerror" d="M263.84,21.8v8m0,-4H60.48m0,-4v8" style="vector-effect: none; stroke-width: 1.4px; stroke: rgb(37, 99, 235); stroke-opacity: 1;"/></g><g class="errorbar"><path class="xerror" d="M285.98,84.68v8m0,-4H194.18m0,-4v8" style="vector-effect: none; stroke-width: 1.4px; stroke: rgb(37, 99, 235); stroke-opacity: 1;"/></g><g class="errorbar"><path class="xerror" d="M434.24,147.56v8m0,-4H272.67m0,-4v8" style="vector-effect: none; stroke-width: 1.4px; stroke: rgb(37, 99, 235); stroke-opacity: 1;"/></g></g><g class="lines"/><g class="points"><path class="point" transform="translate(162.16,25.8)" d="M6,0A6,6 0 1,1 0,-6A6,6 0 0,1 6,0Z" style="opacity: 1; stroke-width: 0.8px; fill: rgb(37, 99, 235); fill-opacity: 1; stroke: rgb(255, 255, 255); stroke-opacity: 1;"/><path class="point" transform="translate(240.08,88.68)" d="M6,0A6,6 0 1,1 0,-6A6,6 0 0,1 6,0Z" style="opacity: 1; stroke-width: 0.8px; fill: rgb(37, 99, 235); fill-opacity: 1; stroke: rgb(255, 255, 255); stroke-opacity: 1;"/><path class="point" transform="translate(353.46,151.56)" d="M6,0A6,6 0 1,1 0,-6A6,6 0 0,1 6,0Z" style="opacity: 1; stroke-width: 0.8px; fill: rgb(37, 99, 235); fill-opacity: 1; stroke: rgb(255, 255, 255); stroke-opacity: 1;"/></g><g class="text"><g class="textpoint" transform="translate(8.5,2.75)"><text x="162.16" y="25.8" text-anchor="start" style="font-family: Arial; font-size: 11px; fill: rgb(17, 24, 39); fill-opacity: 1; white-space: pre;">1.09 (0.91-1.30)</text></g><g class="textpoint" transform="translate(8.5,2.75)"><text x="240.08" y="88.68" text-anchor="start" style="font-family: Arial; font-size: 11px; fill: rgb(17, 24, 39); fill-opacity: 1; white-space: pre;">1.24 (1.15-1.35)</text></g><g class="textpoint" transform="translate(8.5,2.75)"><text x="353.46" y="151.56" text-anchor="start" style="font-family: Arial; font-size: 11px; fill: rgb(17, 24, 39); fill-opacity: 1; white-space: pre;">1.51 (1.32-1.74)</text></g></g></g><g class="trace scatter tracee80e7b" style="stroke-miterlimit: 2; opacity: 1;"><g class="fills"/><g class="errorbars"><g class="errorbar"><path class="xerror" d="M297.79,210.44v8m0,-4H119.13m0,-4v8" style="vector-effect: none; stroke-width: 1.4px; stroke: rgb(22, 163, 74); stroke-opacity: 1;"/></g><g class="errorbar"><path class="xerror" d="M301.71,273.32v8m0,-4H132.32m0,-4v8" style="vector-effect: none; stroke-width: 1.4px; stroke: rgb(22, 163, 74); stroke-opacity: 1;"/></g><g class="errorbar"><path class="xerror" d="M417.55,336.2v8m0,-4H135.35m0,-4v8" style="vector-effect: none; stroke-width: 1.4px; stroke: rgb(22, 163, 74); stroke-opacity: 1;"/></g></g><g class="lines"/><g class="points"><path class="point" transform="translate(208.46,214.44)" d="M6,0A6,6 0 1,1 0,-6A6,6 0 0,1 6,0Z" style="opacity: 1; stroke-width: 0.8px; fill: rgb(22, 163, 74); fill-opacity: 1; stroke: rgb(255, 255, 255); stroke-opacity: 1;"/><path class="point" transform="translate(217.02,277.32)" d="M6,0A6,6 0 1,1 0,-6A6,6 0 0,1 6,0Z" style="opacity: 1; stroke-width: 0.8px; fill: rgb(22, 163, 74); fill-opacity: 1; stroke: rgb(255, 255, 255); stroke-opacity: 1;"/><path class="point" transform="translate(276.45,340.2)" d="M6,0A6,6 0 1,1 0,-6A6,6 0 0,1 6,0Z" style="opacity: 1; stroke-width: 0.8px; fill: rgb(22, 163, 74); fill-opacity: 1; stroke: rgb(255, 255, 255); stroke-opacity: 1;"/></g><g class="text"><g class="textpoint" transform="translate(8.5,2.75)"><text x="208.46" y="214.44" text-anchor="start" style="font-family: Arial; font-size: 11px; fill: rgb(17, 24, 39); fill-opacity: 1; white-space: pre;">1.18 (1.01-1.37)</text></g><g class="textpoint" transform="translate(8.5,2.75)"><text x="217.02" y="277.32" text-anchor="start" style="font-family: Arial; font-size: 11px; fill: rgb(17, 24, 39); fill-opacity: 1; white-space: pre;">1.19 (1.03-1.38)</text></g><g class="textpoint" transform="translate(8.5,2.75)"><text x="276.45" y="340.2" text-anchor="start" style="font-family: Arial; font-size: 11px; fill: rgb(17, 24, 39); fill-opacity: 1; white-space: pre;">1.32 (1.04-1.69)</text></g></g></g></g></g></g><g class="zerolinelayer-above"/><path class="xlines-above crisp" d="M229,421.5H730" style="fill: none; stroke-width: 1px; stroke: rgb(156, 163, 175); stroke-opacity: 1;"/><path class="ylines-above crisp" d="M229.5,55V421" style="fill: none; stroke-width: 1px; stroke: rgb(156, 163, 175); stroke-opacity: 1;"/><g class="overlines-above"/><g class="xaxislayer-above"><path class="xtick ticks crisp" d="M0,422v5" transform="translate(344.54,0)" style="stroke: rgb(68, 68, 68); stroke-opacity: 1; stroke-width: 1px;"/><path class="xtick ticks crisp" d="M0,422v5" transform="translate(449.77,0)" style="stroke: rgb(68, 68, 68); stroke-opacity: 1; stroke-width: 1px;"/><path class="xtick ticks crisp" d="M0,422v5" transform="translate(538.75,0)" style="stroke: rgb(68, 68, 68); stroke-opacity: 1; stroke-width: 1px;"/><path class="xtick ticks crisp" d="M0,422v5" transform="translate(615.8199999999999,0)" style="stroke: rgb(68, 68, 68); stroke-opacity: 1; stroke-width: 1px;"/><path class="xtick ticks crisp" d="M0,422v5" transform="translate(683.8,0)" style="stroke: rgb(68, 68, 68); stroke-opacity: 1; stroke-width: 1px;"/><g class="xtick"><text text-anchor="middle" x="0" y="441.4" transform="translate(344.54,0)" style="font-family: Arial; font-size: 12px; fill: rgb(17, 24, 39); fill-opacity: 1; white-space: pre;">1</text></g><g class="xtick"><text text-anchor="middle" x="0" y="441.4" style="font-family: Arial; font-size: 12px; fill: rgb(17, 24, 39); fill-opacity: 1; white-space: pre;" transform="translate(449.77,0)">1.2</text></g><g class="xtick"><text text-anchor="middle" x="0" y="441.4" style="font-family: Arial; font-size: 12px; fill: rgb(17, 24, 39); fill-opacity: 1; white-space: pre;" transform="translate(538.75,0)">1.4</text></g><g class="xtick"><text text-anchor="middle" x="0" y="441.4" style="font-family: Arial; font-size: 12px; fill: rgb(17, 24, 39); fill-opacity: 1; white-space: pre;" transform="translate(615.8199999999999,0)">1.6</text></g><g class="xtick"><text text-anchor="middle" x="0" y="441.4" style="font-family: Arial; font-size: 12px; fill: rgb(17, 24, 39); fill-opacity: 1; white-space: pre;" transform="translate(683.8,0)">1.8</text></g></g><g class="yaxislayer-above"><g class="ytick"><text text-anchor="end" x="226.6" y="4.199999999999999" transform="translate(0,395.2)" style="font-family: Arial; font-size: 12px; fill: rgb(17, 24, 39); fill-opacity: 1; white-space: pre;">Persistent | Social Participation</text></g><g class="ytick"><text text-anchor="end" x="226.6" y="4.199999999999999" transform="translate(0,332.32)" style="font-family: Arial; font-size: 12px; fill: rgb(17, 24, 39); fill-opacity: 1; white-space: pre;">Adopted | Social Participation</text></g><g class="ytick"><text text-anchor="end" x="226.6" y="4.199999999999999" transform="translate(0,269.44)" style="font-family: Arial; font-size: 12px; fill: rgb(17, 24, 39); fill-opacity: 1; white-space: pre;">Stopped | Social Participation</text></g><g class="ytick"><text text-anchor="end" x="226.6" y="4.199999999999999" transform="translate(0,206.56)" style="font-family: Arial; font-size: 12px; fill: rgb(17, 24, 39); fill-opacity: 1; white-space: pre;">Persistent | Internet Use</text></g><g class="ytick"><text text-anchor="end" x="226.6" y="4.199999999999999" transform="translate(0,143.68)" style="font-family: Arial; font-size: 12px; fill: rgb(17, 24, 39); fill-opacity: 1; white-space: pre;">Adopted | Internet Use</text></g><g class="ytick"><text text-anchor="end" x="226.6" y="4.199999999999999" transform="translate(0,80.8)" style="font-family: Arial; font-size: 12px; fill: rgb(17, 24, 39); fill-opacity: 1; white-space: pre;">Stopped | Internet Use</text></g></g><g class="overaxes-above"/></g></g><g class="polarlayer"/><g class="smithlayer"/><g class="ternarylayer"/><g class="geolayer"/><g class="funnelarealayer"/><g class="pielayer"/><g class="iciclelayer"/><g class="treemaplayer"/><g class="sunburstlayer"/><g class="glimages"/><defs id="topdefs-59dc02"><g class="clips"/><clipPath id="legend59dc02"><rect width="259" height="29" x="0" y="0"/></clipPath></defs><g class="layer-above"><g class="imagelayer"/><g class="shapelayer"><g class="shape-group" data-index="0" clip-path="url(#clip59dc02x)"><path data-index="0" fill-rule="evenodd" d="M344.54,421L344.54,55" style="opacity: 1; stroke: rgb(75, 85, 99); stroke-opacity: 1; fill: rgb(0, 0, 0); fill-opacity: 0; stroke-dasharray: 9px, 9px; stroke-width: 1px;"/></g></g></g><g class="infolayer"><g class="legend" pointer-events="all" transform="translate(350.5,479.55999999999995)"><rect class="bg" shape-rendering="crispEdges" style="stroke: rgb(68, 68, 68); stroke-opacity: 1; fill: rgb(255, 255, 255); fill-opacity: 1; stroke-width: 0px;" width="259" height="29" x="0" y="0"/><g class="scrollbox" transform="" clip-path="url(#legend59dc02)"><g class="groups"><g class="traces" transform="translate(0,14.5)" style="opacity: 1;"><text class="legendtext" text-anchor="start" x="40" y="4.680000000000001" style="font-family: Arial; font-size: 12px; fill: rgb(17, 24, 39); fill-opacity: 1; white-space: pre;">Internet Use</text><g class="layers" style="opacity: 1;"><g class="legendfill"/><g class="legendlines"/><g class="legendsymbols"><g class="legendpoints"><path class="scatterpts" transform="translate(20,0)" d="M6,0A6,6 0 1,1 0,-6A6,6 0 0,1 6,0Z" style="opacity: 1; stroke-width: 0.8px; fill: rgb(37, 99, 235); fill-opacity: 1; stroke: rgb(255, 255, 255); stroke-opacity: 1;"/></g></g></g><rect class="legendtoggle" x="0" y="-9.5" width="108.193359375" height="19" style="fill: rgb(0, 0, 0); fill-opacity: 0;"/></g><g class="traces" transform="translate(110.693359375,14.5)" style="opacity: 1;"><text class="legendtext" text-anchor="start" x="40" y="4.680000000000001" style="font-family: Arial; font-size: 12px; fill: rgb(17, 24, 39); fill-opacity: 1; white-space: pre;">Social Participation</text><g class="layers" style="opacity: 1;"><g class="legendfill"/><g class="legendlines"/><g class="legendsymbols"><g class="legendpoints"><path class="scatterpts" transform="translate(20,0)" d="M6,0A6,6 0 1,1 0,-6A6,6 0 0,1 6,0Z" style="opacity: 1; stroke-width: 0.8px; fill: rgb(22, 163, 74); fill-opacity: 1; stroke: rgb(255, 255, 255); stroke-opacity: 1;"/></g></g></g><rect class="legendtoggle" x="0" y="-9.5" width="144.87890625" height="19" style="fill: rgb(0, 0, 0); fill-opacity: 0;"/></g></g></g><rect class="scrollbar" rx="20" ry="3" width="0" height="0" style="fill: rgb(128, 139, 164); fill-opacity: 1;" x="0" y="0"/></g><g class="g-gtitle"><text class="gtitle" x="9" y="27.5" text-anchor="start" dy="0em" style="opacity: 1; font-family: Arial; font-size: 18px; fill: rgb(17, 24, 39); fill-opacity: 1; white-space: pre;">Connectedness histories</text></g><g class="g-xtitle"><text class="xtitle" x="480" y="468.700390625" text-anchor="middle" style="opacity: 1; font-family: Arial; font-size: 14px; fill: rgb(17, 24, 39); fill-opacity: 1; white-space: pre;">Odds ratio for next-wave healthy ageing</text></g><g class="g-ytitle"/></g></svg>