<svg xmlns="http://www.w3.org/2000/svg" width="842" height="595" viewBox="0 0 842 595">
<rect width="842" height="595" fill="white"/>
<text x="42" y="42" font-family="Arial" font-size="18" font-weight="bold" fill="#0F172A" text-anchor="start">Connectedness histories and subsequent healthy ageing</text>
<text x="42" y="58" font-family="Arial" font-size="9.5" font-weight="normal" fill="#6B7280" text-anchor="start">Estimates are random-effects pooled odds ratios from user-run exposure-history models.</text>
<rect x="36" y="93" width="500" height="430" rx="28" fill="#DDE8F8" stroke="#C7D7EE" stroke-width="1.5"/>
<text x="60" y="127" font-family="Arial" font-size="13" font-weight="bold" fill="#173B78" text-anchor="start">Exposure pattern across two survey waves</text>
<text x="60" y="143" font-family="Arial" font-size="9" font-weight="normal" fill="#6B7280" text-anchor="start">Inactive to active states define adopted, stopped, and persistent histories.</text>
<text x="64" y="171" font-family="Arial" font-size="10" font-weight="bold" fill="#334155" text-anchor="start">Previous wave</text>
<text x="158" y="171" font-family="Arial" font-size="10" font-weight="bold" fill="#334155" text-anchor="start">Index wave</text>
<text x="314" y="171" font-family="Arial" font-size="10" font-weight="bold" fill="#334155" text-anchor="start">History</text>
<text x="468" y="171" font-family="Arial" font-size="10" font-weight="bold" fill="#334155" text-anchor="middle">OR (95% CI)</text>
<rect x="58" y="197" width="172" height="48" rx="8" fill="#FFFFFF" stroke="#CBD5E1" stroke-width="1"/>
<rect x="76" y="204" width="18.7" height="28.9" rx="3.4" fill="#EEF2F7" stroke="#94A3B8" stroke-width="1.4"/>
<circle cx="85.35" cy="228.65" r="1.19" fill="#94A3B8"/>
<rect x="80.25" y="209.1" width="10.2" height="2.55" rx="0.85" fill="#94A3B8" stroke="#94A3B8" stroke-width="0"/>
<line x1="81.1" y1="215.9" x2="89.6" y2="215.9" stroke="#94A3B8" stroke-width="0.935"/>
<line x1="81.1" y1="219.3" x2="89.6" y2="219.3" stroke="#94A3B8" stroke-width="0.935"/>
<rect x="166" y="204" width="18.7" height="28.9" rx="3.4" fill="#FFFFFF" stroke="#315BA3" stroke-width="1.4"/>
<circle cx="175.35" cy="228.65" r="1.19" fill="#315BA3"/>
<rect x="170.25" y="209.1" width="10.2" height="2.55" rx="0.85" fill="#315BA3" stroke="#315BA3" stroke-width="0"/>
<line x1="171.1" y1="215.9" x2="179.6" y2="215.9" stroke="#315BA3" stroke-width="0.935"/>
<line x1="171.1" y1="219.3" x2="179.6" y2="219.3" stroke="#315BA3" stroke-width="0.935"/>
<line x1="128" y1="221" x2="154" y2="221" stroke="#94A3B8" stroke-width="1.2"/>
<path d="M154 221 L148 217 M154 221 L148 225" stroke="#94A3B8" stroke-width="1.2" fill="none"/>
<text x="242" y="216" font-family="Arial" font-size="10.5" font-weight="bold" fill="#0F172A" text-anchor="start">Internet adopted</text>
<text x="242" y="232" font-family="Arial" font-size="8.2" font-weight="normal" fill="#6B7280" text-anchor="start">Exposure history</text>
<rect x="410" y="202" width="116" height="37" rx="8" fill="#FFF4C7" stroke="#EAB308" stroke-width="1.2"/>
<text x="468" y="218" font-family="Arial" font-size="12" font-weight="bold" fill="#173B78" text-anchor="middle">1.24 (1.15-1.35)</text>
<text x="468" y="231" font-family="Arial" font-size="7.7" font-weight="normal" fill="#6B7280" text-anchor="middle">OR (95% CI)</text>
<rect x="58" y="253" width="172" height="48" rx="8" fill="#FFFFFF" stroke="#CBD5E1" stroke-width="1"/>
<rect x="76" y="260" width="18.7" height="28.9" rx="3.4" fill="#FFFFFF" stroke="#315BA3" stroke-width="1.4"/>
<circle cx="85.35" cy="284.65" r="1.19" fill="#315BA3"/>
<rect x="80.25" y="265.1" width="10.2" height="2.55" rx="0.85" fill="#315BA3" stroke="#315BA3" stroke-width="0"/>
<line x1="81.1" y1="271.9" x2="89.6" y2="271.9" stroke="#315BA3" stroke-width="0.935"/>
<line x1="81.1" y1="275.3" x2="89.6" y2="275.3" stroke="#315BA3" stroke-width="0.935"/>
<rect x="166" y="260" width="18.7" height="28.9" rx="3.4" fill="#EEF2F7" stroke="#94A3B8" stroke-width="1.4"/>
<circle cx="175.35" cy="284.65" r="1.19" fill="#94A3B8"/>
<rect x="170.25" y="265.1" width="10.2" height="2.55" rx="0.85" fill="#94A3B8" stroke="#94A3B8" stroke-width="0"/>
<line x1="171.1" y1="271.9" x2="179.6" y2="271.9" stroke="#94A3B8" stroke-width="0.935"/>
<line x1="171.1" y1="275.3" x2="179.6" y2="275.3" stroke="#94A3B8" stroke-width="0.935"/>
<line x1="128" y1="277" x2="154" y2="277" stroke="#94A3B8" stroke-width="1.2"/>
<path d="M154 277 L148 273 M154 277 L148 281" stroke="#94A3B8" stroke-width="1.2" fill="none"/>
<text x="242" y="272" font-family="Arial" font-size="10.5" font-weight="bold" fill="#0F172A" text-anchor="start">Internet stopped</text>
<text x="242" y="288" font-family="Arial" font-size="8.2" font-weight="normal" fill="#6B7280" text-anchor="start">Exposure history</text>
<rect x="410" y="258" width="116" height="37" rx="8" fill="#F3F4F6" stroke="#94A3B8" stroke-width="1.2"/>
<text x="468" y="274" font-family="Arial" font-size="12" font-weight="bold" fill="#173B78" text-anchor="middle">1.09 (0.91-1.30)</text>
<text x="468" y="287" font-family="Arial" font-size="7.7" font-weight="normal" fill="#6B7280" text-anchor="middle">OR (95% CI)</text>
<rect x="58" y="309" width="172" height="48" rx="8" fill="#FFFFFF" stroke="#CBD5E1" stroke-width="1"/>
<rect x="76" y="316" width="18.7" height="28.9" rx="3.4" fill="#FFFFFF" stroke="#315BA3" stroke-width="1.4"/>
<circle cx="85.35" cy="340.65" r="1.19" fill="#315BA3"/>
<rect x="80.25" y="321.1" width="10.2" height="2.55" rx="0.85" fill="#315BA3" stroke="#315BA3" stroke-width="0"/>
<line x1="81.1" y1="327.9" x2="89.6" y2="327.9" stroke="#315BA3" stroke-width="0.935"/>
<line x1="81.1" y1="331.3" x2="89.6" y2="331.3" stroke="#315BA3" stroke-width="0.935"/>
<rect x="166" y="316" width="18.7" height="28.9" rx="3.4" fill="#FFFFFF" stroke="#315BA3" stroke-width="1.4"/>
<circle cx="175.35" cy="340.65" r="1.19" fill="#315BA3"/>
<rect x="170.25" y="321.1" width="10.2" height="2.55" rx="0.85" fill="#315BA3" stroke="#315BA3" stroke-width="0"/>
<line x1="171.1" y1="327.9" x2="179.6" y2="327.9" stroke="#315BA3" stroke-width="0.935"/>
<line x1="171.1" y1="331.3" x2="179.6" y2="331.3" stroke="#315BA3" stroke-width="0.935"/>
<line x1="128" y1="333" x2="154" y2="333" stroke="#94A3B8" stroke-width="1.2"/>
<path d="M154 333 L148 329 M154 333 L148 337" stroke="#94A3B8" stroke-width="1.2" fill="none"/>
<text x="242" y="328" font-family="Arial" font-size="10.5" font-weight="bold" fill="#0F172A" text-anchor="start">Internet persistent</text>
<text x="242" y="344" font-family="Arial" font-size="8.2" font-weight="normal" fill="#6B7280" text-anchor="start">Exposure history</text>
<rect x="410" y="314" width="116" height="37" rx="8" fill="#FCE8D6" stroke="#E68A2E" stroke-width="1.2"/>
<text x="468" y="330" font-family="Arial" font-size="12" font-weight="bold" fill="#173B78" text-anchor="middle">1.51 (1.32-1.74)</text>
<text x="468" y="343" font-family="Arial" font-size="7.7" font-weight="normal" fill="#6B7280" text-anchor="middle">OR (95% CI)</text>
<rect x="58" y="365" width="172" height="48" rx="8" fill="#FFFFFF" stroke="#CBD5E1" stroke-width="1"/>
<rect x="67" y="373" width="34.32" height="26.52" rx="3.9000000000000004" fill="#EEF2F7" stroke="#94A3B8" stroke-width="1.4"/>
<circle cx="76.36" cy="382.36" r="3.12" fill="#94A3B8"/>
<circle cx="84.16" cy="380.02" r="3.5100000000000002" fill="#94A3B8"/>
<circle cx="91.96000000000001" cy="382.36" r="3.12" fill="#94A3B8"/>
<rect x="72.46" y="386.26" width="7.800000000000001" height="10.14" rx="3.12" fill="#94A3B8" stroke="#94A3B8" stroke-width="0"/>
<rect x="80.26" y="386.26" width="7.800000000000001" height="12.48" rx="3.12" fill="#94A3B8" stroke="#94A3B8" stroke-width="0"/>
<rect x="88.06" y="386.26" width="7.800000000000001" height="10.14" rx="3.12" fill="#94A3B8" stroke="#94A3B8" stroke-width="0"/>
<rect x="157" y="373" width="34.32" height="26.52" rx="3.9000000000000004" fill="#FFFFFF" stroke="#22966E" stroke-width="1.4"/>
<circle cx="166.36" cy="382.36" r="3.12" fill="#22966E"/>
<circle cx="174.16" cy="380.02" r="3.5100000000000002" fill="#22966E"/>
<circle cx="181.96" cy="382.36" r="3.12" fill="#22966E"/>
<rect x="162.46" y="386.26" width="7.800000000000001" height="10.14" rx="3.12" fill="#22966E" stroke="#22966E" stroke-width="0"/>
<rect x="170.26" y="386.26" width="7.800000000000001" height="12.48" rx="3.12" fill="#22966E" stroke="#22966E" stroke-width="0"/>
<rect x="178.06" y="386.26" width="7.800000000000001" height="10.14" rx="3.12" fill="#22966E" stroke="#22966E" stroke-width="0"/>
<line x1="128" y1="389" x2="154" y2="389" stroke="#94A3B8" stroke-width="1.2"/>
<path d="M154 389 L148 385 M154 389 L148 393" stroke="#94A3B8" stroke-width="1.2" fill="none"/>
<text x="242" y="384" font-family="Arial" font-size="10.5" font-weight="bold" fill="#0F172A" text-anchor="start">Social adopted</text>
<text x="242" y="400" font-family="Arial" font-size="8.2" font-weight="normal" fill="#6B7280" text-anchor="start">Exposure history</text>
<rect x="410" y="370" width="116" height="37" rx="8" fill="#DFF3EA" stroke="#22966E" stroke-width="1.2"/>
<text x="468" y="386" font-family="Arial" font-size="12" font-weight="bold" fill="#173B78" text-anchor="middle">1.19 (1.03-1.38)</text>
<text x="468" y="399" font-family="Arial" font-size="7.7" font-weight="normal" fill="#6B7280" text-anchor="middle">OR (95% CI)</text>
<rect x="58" y="421" width="172" height="48" rx="8" fill="#FFFFFF" stroke="#CBD5E1" stroke-width="1"/>
<rect x="67" y="429" width="34.32" height="26.52" rx="3.9000000000000004" fill="#FFFFFF" stroke="#22966E" stroke-width="1.4"/>
<circle cx="76.36" cy="438.36" r="3.12" fill="#22966E"/>
<circle cx="84.16" cy="436.02" r="3.5100000000000002" fill="#22966E"/>
<circle cx="91.96000000000001" cy="438.36" r="3.12" fill="#22966E"/>
<rect x="72.46" y="442.26" width="7.800000000000001" height="10.14" rx="3.12" fill="#22966E" stroke="#22966E" stroke-width="0"/>
<rect x="80.26" y="442.26" width="7.800000000000001" height="12.48" rx="3.12" fill="#22966E" stroke="#22966E" stroke-width="0"/>
<rect x="88.06" y="442.26" width="7.800000000000001" height="10.14" rx="3.12" fill="#22966E" stroke="#22966E" stroke-width="0"/>
<rect x="157" y="429" width="34.32" height="26.52" rx="3.9000000000000004" fill="#EEF2F7" stroke="#94A3B8" stroke-width="1.4"/>
<circle cx="166.36" cy="438.36" r="3.12" fill="#94A3B8"/>
<circle cx="174.16" cy="436.02" r="3.5100000000000002" fill="#94A3B8"/>
<circle cx="181.96" cy="438.36" r="3.12" fill="#94A3B8"/>
<rect x="162.46" y="442.26" width="7.800000000000001" height="10.14" rx="3.12" fill="#94A3B8" stroke="#94A3B8" stroke-width="0"/>
<rect x="170.26" y="442.26" width="7.800000000000001" height="12.48" rx="3.12" fill="#94A3B8" stroke="#94A3B8" stroke-width="0"/>
<rect x="178.06" y="442.26" width="7.800000000000001" height="10.14" rx="3.12" fill="#94A3B8" stroke="#94A3B8" stroke-width="0"/>
<line x1="128" y1="445" x2="154" y2="445" stroke="#94A3B8" stroke-width="1.2"/>
<path d="M154 445 L148 441 M154 445 L148 449" stroke="#94A3B8" stroke-width="1.2" fill="none"/>
<text x="242" y="440" font-family="Arial" font-size="10.5" font-weight="bold" fill="#0F172A" text-anchor="start">Social stopped</text>
<text x="242" y="456" font-family="Arial" font-size="8.2" font-weight="normal" fill="#6B7280" text-anchor="start">Exposure history</text>
<rect x="410" y="426" width="116" height="37" rx="8" fill="#F3F4F6" stroke="#94A3B8" stroke-width="1.2"/>
<text x="468" y="442" font-family="Arial" font-size="12" font-weight="bold" fill="#173B78" text-anchor="middle">1.18 (1.01-1.37)</text>
<text x="468" y="455" font-family="Arial" font-size="7.7" font-weight="normal" fill="#6B7280" text-anchor="middle">OR (95% CI)</text>
<rect x="58" y="477" width="172" height="48" rx="8" fill="#FFFFFF" stroke="#CBD5E1" stroke-width="1"/>
<rect x="67" y="485" width="34.32" height="26.52" rx="3.9000000000000004" fill="#FFFFFF" stroke="#22966E" stroke-width="1.4"/>
<circle cx="76.36" cy="494.36" r="3.12" fill="#22966E"/>
<circle cx="84.16" cy="492.02" r="3.5100000000000002" fill="#22966E"/>
<circle cx="91.96000000000001" cy="494.36" r="3.12" fill="#22966E"/>
<rect x="72.46" y="498.26" width="7.800000000000001" height="10.14" rx="3.12" fill="#22966E" stroke="#22966E" stroke-width="0"/>
<rect x="80.26" y="498.26" width="7.800000000000001" height="12.48" rx="3.12" fill="#22966E" stroke="#22966E" stroke-width="0"/>
<rect x="88.06" y="498.26" width="7.800000000000001" height="10.14" rx="3.12" fill="#22966E" stroke="#22966E" stroke-width="0"/>
<rect x="157" y="485" width="34.32" height="26.52" rx="3.9000000000000004" fill="#FFFFFF" stroke="#22966E" stroke-width="1.4"/>
<circle cx="166.36" cy="494.36" r="3.12" fill="#22966E"/>
<circle cx="174.16" cy="492.02" r="3.5100000000000002" fill="#22966E"/>
<circle cx="181.96" cy="494.36" r="3.12" fill="#22966E"/>
<rect x="162.46" y="498.26" width="7.800000000000001" height="10.14" rx="3.12" fill="#22966E" stroke="#22966E" stroke-width="0"/>
<rect x="170.26" y="498.26" width="7.800000000000001" height="12.48" rx="3.12" fill="#22966E" stroke="#22966E" stroke-width="0"/>
<rect x="178.06" y="498.26" width="7.800000000000001" height="10.14" rx="3.12" fill="#22966E" stroke="#22966E" stroke-width="0"/>
<line x1="128" y1="501" x2="154" y2="501" stroke="#94A3B8" stroke-width="1.2"/>
<path d="M154 501 L148 497 M154 501 L148 505" stroke="#94A3B8" stroke-width="1.2" fill="none"/>
<text x="242" y="496" font-family="Arial" font-size="10.5" font-weight="bold" fill="#0F172A" text-anchor="start">Social persistent</text>
<text x="242" y="512" font-family="Arial" font-size="8.2" font-weight="normal" fill="#6B7280" text-anchor="start">Exposure history</text>
<rect x="410" y="482" width="116" height="37" rx="8" fill="#FBE2E6" stroke="#D94A64" stroke-width="1.2"/>
<text x="468" y="498" font-family="Arial" font-size="12" font-weight="bold" fill="#173B78" text-anchor="middle">1.32 (1.04-1.69)</text>
<text x="468" y="511" font-family="Arial" font-size="7.7" font-weight="normal" fill="#6B7280" text-anchor="middle">OR (95% CI)</text>
<circle cx="684" cy="298" r="88" fill="#F8FAFC" stroke="#CBD5E1" stroke-width="1.6"/>
<circle cx="684" cy="294" r="48" fill="#EAF1FB" stroke="#9EB7D8" stroke-width="1.4"/>
<ellipse cx="684" cy="269" rx="34" ry="18.5" fill="#FBE2E6" stroke="#D94A64" stroke-width="1.4"/>
<path d="M684 287 L684 325 M684 306 C664 306 664 325 651 325 M684 301 C704 301 706 322 720 322" stroke="#D94A64" stroke-width="1.4" fill="none"/>
<path d="M638 280 C648 258 664 263 668 276" stroke="#D94A64" stroke-width="1.1" fill="none"/>
<path d="M656 280 C666 258 682 263 686 276" stroke="#D94A64" stroke-width="1.1" fill="none"/>
<path d="M674 280 C684 258 700 263 704 276" stroke="#D94A64" stroke-width="1.1" fill="none"/>
<text x="684" y="400" font-family="Arial" font-size="12" font-weight="bold" fill="#173B78" text-anchor="middle">Next-wave healthy ageing</text>
<text x="599" y="214" font-family="Arial" font-size="8.5" font-weight="normal" fill="#374151" text-anchor="middle">Cognition</text>
<text x="762" y="224" font-family="Arial" font-size="8.5" font-weight="normal" fill="#374151" text-anchor="middle">Function</text>
<text x="601" y="372" font-family="Arial" font-size="8.5" font-weight="normal" fill="#374151" text-anchor="middle">Mood</text>
<text x="766" y="366" font-family="Arial" font-size="8.5" font-weight="normal" fill="#374151" text-anchor="middle">SRH</text>
<text x="684" y="195" font-family="Arial" font-size="8.5" font-weight="normal" fill="#374151" text-anchor="middle">Morbidity</text>
<line x1="548" y1="298" x2="592" y2="298" stroke="#A7B3C5" stroke-width="1.5" stroke-dasharray="5 4"/>
<path d="M592 298 L583 293 M592 298 L583 303" stroke="#A7B3C5" stroke-width="1.5" fill="none"/>
<rect x="580" y="429" width="222" height="82" rx="10" fill="#FFFFFF" stroke="#CBD5E1" stroke-width="1"/>
<text x="596" y="453" font-family="Arial" font-size="9.5" font-weight="bold" fill="#334155" text-anchor="start">Legend</text>
<text x="596" y="472" font-family="Arial" font-size="8.8" font-weight="normal" fill="#6B7280" text-anchor="start">White icon: active exposure state</text>
<text x="596" y="487" font-family="Arial" font-size="8.8" font-weight="normal" fill="#6B7280" text-anchor="start">Grey icon: inactive exposure state</text>
<text x="596" y="502" font-family="Arial" font-size="8.8" font-weight="normal" fill="#6B7280" text-anchor="start">Reference group: never connected history</text>
<text x="804" y="561" font-family="Arial" font-size="7.8" font-weight="normal" fill="#64748B" text-anchor="end">Source: meta_exposure_history.csv; no simulated values.</text>
</svg>