<svg class="main-svg" xmlns="http://www.w3.org/2000/svg" xmlns:xlink="http://www.w3.org/1999/xlink" width="1800" height="1080" style="" viewBox="0 0 900 540"><rect x="0" y="0" width="900" height="540" style="fill: rgb(255, 255, 255); fill-opacity: 1;"/><defs id="defs-b67f12"><g class="clips"><clipPath id="clipb67f12xyplot" class="plotclip"><rect width="480" height="383"/></clipPath><clipPath class="axesclip" id="clipb67f12x"><rect x="250" y="0" width="480" height="540"/></clipPath><clipPath class="axesclip" id="clipb67f12y"><rect x="0" y="55" width="900" height="383"/></clipPath><clipPath class="axesclip" id="clipb67f12xy"><rect x="250" y="55" width="480" height="383"/></clipPath></g><g class="gradients"/><g class="patterns"/></defs><g class="bglayer"/><g class="layer-below"><g class="imagelayer"/><g class="shapelayer"/></g><g class="cartesianlayer"><g class="subplot xy"><g class="layer-subplot"><g class="shapelayer"/><g class="imagelayer"/></g><g class="minor-gridlayer"><g class="x"/><g class="y"/></g><g class="gridlayer"><g class="x"><path class="xgrid crisp" transform="translate(342.36,0)" d="M0,55v383" style="stroke: rgb(229, 231, 235); stroke-opacity: 1; stroke-width: 1px;"/><path class="xgrid crisp" transform="translate(427.21000000000004,0)" d="M0,55v383" style="stroke: rgb(229, 231, 235); stroke-opacity: 1; stroke-width: 1px;"/><path class="xgrid crisp" transform="translate(498.96000000000004,0)" d="M0,55v383" style="stroke: rgb(229, 231, 235); stroke-opacity: 1; stroke-width: 1px;"/><path class="xgrid crisp" transform="translate(561.1,0)" d="M0,55v383" style="stroke: rgb(229, 231, 235); stroke-opacity: 1; stroke-width: 1px;"/><path class="xgrid crisp" transform="translate(615.9200000000001,0)" d="M0,55v383" style="stroke: rgb(229, 231, 235); stroke-opacity: 1; stroke-width: 1px;"/><path class="xgrid crisp" transform="translate(664.95,0)" d="M0,55v383" style="stroke: rgb(229, 231, 235); stroke-opacity: 1; stroke-width: 1px;"/><path class="xgrid crisp" transform="translate(709.31,0)" d="M0,55v383" style="stroke: rgb(229, 231, 235); stroke-opacity: 1; stroke-width: 1px;"/></g><g class="y"/></g><g class="zerolinelayer"/><g class="layer-between"><g class="shapelayer"/><g class="imagelayer"/></g><path class="xlines-below"/><path class="ylines-below"/><g class="overlines-below"/><g class="xaxislayer-below"/><g class="yaxislayer-below"/><g class="overaxes-below"/><g class="overplot"><g class="xy" transform="translate(250,55)" clip-path="url(#clipb67f12xyplot)"><g class="scatterlayer mlayer"><g class="trace scatter trace8977af" style="stroke-miterlimit: 2; opacity: 1;"><g class="fills"/><g class="errorbars"><g class="errorbar"><path class="xerror" d="M296.23,22.65v8m0,-4H225.74m0,-4v8" style="vector-effect: none; stroke-width: 1.4px; stroke: rgb(124, 58, 237); stroke-opacity: 1;"/></g><g class="errorbar"><path class="xerror" d="M220.78,88.59v8m0,-4H80.74m0,-4v8" style="vector-effect: none; stroke-width: 1.4px; stroke: rgb(124, 58, 237); stroke-opacity: 1;"/></g><g class="errorbar"><path class="xerror" d="M428.12,154.53v8m0,-4H237.28m0,-4v8" style="vector-effect: none; stroke-width: 1.4px; stroke: rgb(124, 58, 237); stroke-opacity: 1;"/></g></g><g class="lines"/><g class="points"><path class="point" transform="translate(260.99,26.65)" d="M6,0A6,6 0 1,1 0,-6A6,6 0 0,1 6,0Z" style="opacity: 1; stroke-width: 0.8px; fill: rgb(124, 58, 237); fill-opacity: 1; stroke: rgb(255, 255, 255); stroke-opacity: 1;"/><path class="point" transform="translate(150.76,92.59)" d="M6,0A6,6 0 1,1 0,-6A6,6 0 0,1 6,0Z" style="opacity: 1; stroke-width: 0.8px; fill: rgb(124, 58, 237); fill-opacity: 1; stroke: rgb(255, 255, 255); stroke-opacity: 1;"/><path class="point" transform="translate(332.7,158.53)" d="M6,0A6,6 0 1,1 0,-6A6,6 0 0,1 6,0Z" style="opacity: 1; stroke-width: 0.8px; fill: rgb(124, 58, 237); fill-opacity: 1; stroke: rgb(255, 255, 255); stroke-opacity: 1;"/></g><g class="text"><g class="textpoint" transform="translate(8.5,2.75)"><text x="260.99" y="26.65" text-anchor="start" style="font-family: Arial; font-size: 11px; fill: rgb(17, 24, 39); fill-opacity: 1; white-space: pre;">1.44 (1.33-1.55)</text></g><g class="textpoint" transform="translate(8.5,2.75)"><text x="150.76" y="92.59" text-anchor="start" style="font-family: Arial; font-size: 11px; fill: rgb(17, 24, 39); fill-opacity: 1; white-space: pre;">1.13 (0.98-1.32)</text></g><g class="textpoint" transform="translate(8.5,2.75)"><text x="332.7" y="158.53" text-anchor="start" style="font-family: Arial; font-size: 11px; fill: rgb(17, 24, 39); fill-opacity: 1; white-space: pre;">1.68 (1.37-2.06)</text></g></g></g><g class="trace scatter trace7cb0a2" style="stroke-miterlimit: 2; opacity: 1;"><g class="fills"/><g class="errorbars"><g class="errorbar"><path class="xerror" d="M316.18,220.47v8m0,-4H273.11m0,-4v8" style="vector-effect: none; stroke-width: 1.4px; stroke: rgb(234, 88, 12); stroke-opacity: 1;"/></g><g class="errorbar"><path class="xerror" d="M231.38,286.41v8m0,-4H102.14m0,-4v8" style="vector-effect: none; stroke-width: 1.4px; stroke: rgb(234, 88, 12); stroke-opacity: 1;"/></g><g class="errorbar"><path class="xerror" d="M436.86,352.35v8m0,-4H215.95m0,-4v8" style="vector-effect: none; stroke-width: 1.4px; stroke: rgb(234, 88, 12); stroke-opacity: 1;"/></g></g><g class="lines"/><g class="points"><path class="point" transform="translate(294.65,224.47)" d="M6,0A6,6 0 1,1 0,-6A6,6 0 0,1 6,0Z" style="opacity: 1; stroke-width: 0.8px; fill: rgb(234, 88, 12); fill-opacity: 1; stroke: rgb(255, 255, 255); stroke-opacity: 1;"/><path class="point" transform="translate(166.76,290.41)" d="M6,0A6,6 0 1,1 0,-6A6,6 0 0,1 6,0Z" style="opacity: 1; stroke-width: 0.8px; fill: rgb(234, 88, 12); fill-opacity: 1; stroke: rgb(255, 255, 255); stroke-opacity: 1;"/><path class="point" transform="translate(326.41,356.35)" d="M6,0A6,6 0 1,1 0,-6A6,6 0 0,1 6,0Z" style="opacity: 1; stroke-width: 0.8px; fill: rgb(234, 88, 12); fill-opacity: 1; stroke: rgb(255, 255, 255); stroke-opacity: 1;"/></g><g class="text"><g class="textpoint" transform="translate(8.5,2.75)"><text x="294.65" y="224.47" text-anchor="start" style="font-family: Arial; font-size: 11px; fill: rgb(17, 24, 39); fill-opacity: 1; white-space: pre;">1.54 (1.47-1.62)</text></g><g class="textpoint" transform="translate(8.5,2.75)"><text x="166.76" y="290.41" text-anchor="start" style="font-family: Arial; font-size: 11px; fill: rgb(17, 24, 39); fill-opacity: 1; white-space: pre;">1.17 (1.02-1.35)</text></g><g class="textpoint" transform="translate(8.5,2.75)"><text x="326.41" y="356.35" text-anchor="start" style="font-family: Arial; font-size: 11px; fill: rgb(17, 24, 39); fill-opacity: 1; white-space: pre;">1.65 (1.30-2.10)</text></g></g></g></g></g></g><g class="zerolinelayer-above"/><path class="xlines-above crisp" d="M249,438.5H730" style="fill: none; stroke-width: 1px; stroke: rgb(156, 163, 175); stroke-opacity: 1;"/><path class="ylines-above crisp" d="M249.5,55V438" style="fill: none; stroke-width: 1px; stroke: rgb(156, 163, 175); stroke-opacity: 1;"/><g class="overlines-above"/><g class="xaxislayer-above"><path class="xtick ticks crisp" d="M0,439v5" transform="translate(342.36,0)" style="stroke: rgb(68, 68, 68); stroke-opacity: 1; stroke-width: 1px;"/><path class="xtick ticks crisp" d="M0,439v5" transform="translate(427.21000000000004,0)" style="stroke: rgb(68, 68, 68); stroke-opacity: 1; stroke-width: 1px;"/><path class="xtick ticks crisp" d="M0,439v5" transform="translate(498.96000000000004,0)" style="stroke: rgb(68, 68, 68); stroke-opacity: 1; stroke-width: 1px;"/><path class="xtick ticks crisp" d="M0,439v5" transform="translate(561.1,0)" style="stroke: rgb(68, 68, 68); stroke-opacity: 1; stroke-width: 1px;"/><path class="xtick ticks crisp" d="M0,439v5" transform="translate(615.9200000000001,0)" style="stroke: rgb(68, 68, 68); stroke-opacity: 1; stroke-width: 1px;"/><path class="xtick ticks crisp" d="M0,439v5" transform="translate(664.95,0)" style="stroke: rgb(68, 68, 68); stroke-opacity: 1; stroke-width: 1px;"/><path class="xtick ticks crisp" d="M0,439v5" transform="translate(709.31,0)" style="stroke: rgb(68, 68, 68); stroke-opacity: 1; stroke-width: 1px;"/><g class="xtick"><text text-anchor="middle" x="0" y="458.4" transform="translate(342.36,0)" style="font-family: Arial; font-size: 12px; fill: rgb(17, 24, 39); fill-opacity: 1; white-space: pre;">1</text></g><g class="xtick"><text text-anchor="middle" x="0" y="458.4" style="font-family: Arial; font-size: 12px; fill: rgb(17, 24, 39); fill-opacity: 1; white-space: pre;" transform="translate(427.21000000000004,0)">1.2</text></g><g class="xtick"><text text-anchor="middle" x="0" y="458.4" style="font-family: Arial; font-size: 12px; fill: rgb(17, 24, 39); fill-opacity: 1; white-space: pre;" transform="translate(498.96000000000004,0)">1.4</text></g><g class="xtick"><text text-anchor="middle" x="0" y="458.4" style="font-family: Arial; font-size: 12px; fill: rgb(17, 24, 39); fill-opacity: 1; white-space: pre;" transform="translate(561.1,0)">1.6</text></g><g class="xtick"><text text-anchor="middle" x="0" y="458.4" style="font-family: Arial; font-size: 12px; fill: rgb(17, 24, 39); fill-opacity: 1; white-space: pre;" transform="translate(615.9200000000001,0)">1.8</text></g><g class="xtick"><text text-anchor="middle" x="0" y="458.4" style="font-family: Arial; font-size: 12px; fill: rgb(17, 24, 39); fill-opacity: 1; white-space: pre;" transform="translate(664.95,0)">2</text></g><g class="xtick"><text text-anchor="middle" x="0" y="458.4" style="font-family: Arial; font-size: 12px; fill: rgb(17, 24, 39); fill-opacity: 1; white-space: pre;" transform="translate(709.31,0)">2.2</text></g></g><g class="yaxislayer-above"><g class="ytick"><text text-anchor="end" x="246.6" y="4.199999999999999" transform="translate(0,411.35)" style="font-family: Arial; font-size: 12px; fill: rgb(17, 24, 39); fill-opacity: 1; white-space: pre;">Both connected | Maintain healthy ageing</text></g><g class="ytick"><text text-anchor="end" x="246.6" y="4.199999999999999" transform="translate(0,345.41)" style="font-family: Arial; font-size: 12px; fill: rgb(17, 24, 39); fill-opacity: 1; white-space: pre;">Social only | Maintain healthy ageing</text></g><g class="ytick"><text text-anchor="end" x="246.6" y="4.199999999999999" transform="translate(0,279.47)" style="font-family: Arial; font-size: 12px; fill: rgb(17, 24, 39); fill-opacity: 1; white-space: pre;">Internet only | Maintain healthy ageing</text></g><g class="ytick"><text text-anchor="end" x="246.6" y="4.199999999999999" transform="translate(0,213.53)" style="font-family: Arial; font-size: 12px; fill: rgb(17, 24, 39); fill-opacity: 1; white-space: pre;">Both connected | Gain healthy ageing</text></g><g class="ytick"><text text-anchor="end" x="246.6" y="4.199999999999999" transform="translate(0,147.59)" style="font-family: Arial; font-size: 12px; fill: rgb(17, 24, 39); fill-opacity: 1; white-space: pre;">Social only | Gain healthy ageing</text></g><g class="ytick"><text text-anchor="end" x="246.6" y="4.199999999999999" transform="translate(0,81.65)" style="font-family: Arial; font-size: 12px; fill: rgb(17, 24, 39); fill-opacity: 1; white-space: pre;">Internet only | Gain healthy ageing</text></g></g><g class="overaxes-above"/></g></g><g class="polarlayer"/><g class="smithlayer"/><g class="ternarylayer"/><g class="geolayer"/><g class="funnelarealayer"/><g class="pielayer"/><g class="iciclelayer"/><g class="treemaplayer"/><g class="sunburstlayer"/><g class="glimages"/><defs id="topdefs-b67f12"><g class="clips"/><clipPath id="legendb67f12"><rect width="325" height="29" x="0" y="0"/></clipPath></defs><g class="layer-above"><g class="imagelayer"/><g class="shapelayer"><g class="shape-group" data-index="0" clip-path="url(#clipb67f12x)"><path data-index="0" fill-rule="evenodd" d="M342.36,438L342.36,55" style="opacity: 1; stroke: rgb(75, 85, 99); stroke-opacity: 1; fill: rgb(0, 0, 0); fill-opacity: 0; stroke-dasharray: 9px, 9px; stroke-width: 1px;"/></g></g></g><g class="infolayer"><g class="legend" pointer-events="all" transform="translate(327.5,499.28)"><rect class="bg" shape-rendering="crispEdges" style="stroke: rgb(68, 68, 68); stroke-opacity: 1; fill: rgb(255, 255, 255); fill-opacity: 1; stroke-width: 0px;" width="325" height="29" x="0" y="0"/><g class="scrollbox" transform="" clip-path="url(#legendb67f12)"><g class="groups"><g class="traces" transform="translate(0,14.5)" style="opacity: 1;"><text class="legendtext" text-anchor="start" x="40" y="4.680000000000001" style="font-family: Arial; font-size: 12px; fill: rgb(17, 24, 39); fill-opacity: 1; white-space: pre;">Gain healthy ageing</text><g class="layers" style="opacity: 1;"><g class="legendfill"/><g class="legendlines"/><g class="legendsymbols"><g class="legendpoints"><path class="scatterpts" transform="translate(20,0)" d="M6,0A6,6 0 1,1 0,-6A6,6 0 0,1 6,0Z" style="opacity: 1; stroke-width: 0.8px; fill: rgb(124, 58, 237); fill-opacity: 1; stroke: rgb(255, 255, 255); stroke-opacity: 1;"/></g></g></g><rect class="legendtoggle" x="0" y="-9.5" width="149.572265625" height="19" style="fill: rgb(0, 0, 0); fill-opacity: 0;"/></g><g class="traces" transform="translate(152.072265625,14.5)" style="opacity: 1;"><text class="legendtext" text-anchor="start" x="40" y="4.680000000000001" style="font-family: Arial; font-size: 12px; fill: rgb(17, 24, 39); fill-opacity: 1; white-space: pre;">Maintain healthy ageing</text><g class="layers" style="opacity: 1;"><g class="legendfill"/><g class="legendlines"/><g class="legendsymbols"><g class="legendpoints"><path class="scatterpts" transform="translate(20,0)" d="M6,0A6,6 0 1,1 0,-6A6,6 0 0,1 6,0Z" style="opacity: 1; stroke-width: 0.8px; fill: rgb(234, 88, 12); fill-opacity: 1; stroke: rgb(255, 255, 255); stroke-opacity: 1;"/></g></g></g><rect class="legendtoggle" x="0" y="-9.5" width="169.58203125" height="19" style="fill: rgb(0, 0, 0); fill-opacity: 0;"/></g></g></g><rect class="scrollbar" rx="20" ry="3" width="0" height="0" style="fill: rgb(128, 139, 164); fill-opacity: 1;" x="0" y="0"/></g><g class="g-gtitle"><text class="gtitle" x="9" y="27.5" text-anchor="start" dy="0em" style="opacity: 1; font-family: Arial; font-size: 18px; fill: rgb(17, 24, 39); fill-opacity: 1; white-space: pre;">Healthy-ageing transitions</text></g><g class="g-xtitle"><text class="xtitle" x="490" y="485.700390625" text-anchor="middle" style="opacity: 1; font-family: Arial; font-size: 14px; fill: rgb(17, 24, 39); fill-opacity: 1; white-space: pre;">Odds ratio relative to neither connectedness</text></g><g class="g-ytitle"/></g></svg>