<svg class="main-svg" xmlns="http://www.w3.org/2000/svg" xmlns:xlink="http://www.w3.org/1999/xlink" width="1720" height="1280" style="" viewBox="0 0 860 640"><rect x="0" y="0" width="860" height="640" style="fill: rgb(255, 255, 255); fill-opacity: 1;"/><defs id="defs-645a73"><g class="clips"><clipPath id="clip645a73xyplot" class="plotclip"><rect width="540" height="470"/></clipPath><clipPath class="axesclip" id="clip645a73x"><rect x="230" y="0" width="540" height="640"/></clipPath><clipPath class="axesclip" id="clip645a73y"><rect x="0" y="78" width="860" height="470"/></clipPath><clipPath class="axesclip" id="clip645a73xy"><rect x="230" y="78" width="540" height="470"/></clipPath></g><g class="gradients"><linearGradient x1="0" y1="1" x2="0" y2="0" gradientUnits="objectBoundingBox" id="g645a73-cbeb5049"><stop offset="0%" stop-color="rgb(234, 242, 251)" stop-opacity="1"/><stop offset="45%" stop-color="rgb(125, 182, 221)" stop-opacity="1"/><stop offset="75%" stop-color="rgb(49, 91, 163)" stop-opacity="1"/><stop offset="100%" stop-color="rgb(23, 59, 120)" stop-opacity="1"/></linearGradient></g><g class="patterns"/></defs><g class="bglayer"/><g class="layer-below"><g class="imagelayer"/><g class="shapelayer"/></g><g class="cartesianlayer"><g class="subplot xy"><g class="layer-subplot"><g class="shapelayer"/><g class="imagelayer"/></g><g class="minor-gridlayer"><g class="x"/><g class="y"/></g><g class="gridlayer"><g class="x"><path class="xgrid crisp" transform="translate(259.86,0)" d="M0,78v470" style="stroke: rgb(238, 242, 247); stroke-opacity: 1; stroke-width: 1px;"/><path class="xgrid crisp" transform="translate(384.28999999999996,0)" d="M0,78v470" style="stroke: rgb(238, 242, 247); stroke-opacity: 1; stroke-width: 1px;"/><path class="xgrid crisp" transform="translate(508.71,0)" d="M0,78v470" style="stroke: rgb(238, 242, 247); stroke-opacity: 1; stroke-width: 1px;"/><path class="xgrid crisp" transform="translate(633.13,0)" d="M0,78v470" style="stroke: rgb(238, 242, 247); stroke-opacity: 1; stroke-width: 1px;"/><path class="xgrid crisp" transform="translate(757.56,0)" d="M0,78v470" style="stroke: rgb(238, 242, 247); stroke-opacity: 1; stroke-width: 1px;"/></g><g class="y"/></g><g class="zerolinelayer"/><g class="layer-between"><g class="shapelayer"/><g class="imagelayer"/></g><path class="xlines-below"/><path class="ylines-below"/><g class="overlines-below"/><g class="xaxislayer-below"/><g class="yaxislayer-below"/><g class="overaxes-below"/><g class="overplot"><g class="xy" transform="translate(230,78)" clip-path="url(#clip645a73xyplot)"><g class="scatterlayer mlayer"><g class="trace scatter traceeb5049" style="stroke-miterlimit: 2; opacity: 1;"><g class="fills"/><g class="errorbars"/><g class="lines"/><g class="points"><path class="point plotly-customdata" transform="translate(402.55,31.63)" d="M26,0A26,26 0 1,1 0,-26A26,26 0 0,1 26,0Z" style="opacity: 0.92; stroke-width: 1.4px; fill: rgb(23, 59, 120); fill-opacity: 1; stroke: rgb(255, 255, 255); stroke-opacity: 1;"/><path class="point plotly-customdata" transform="translate(116.76,76.83)" d="M16.53,0A16.53,16.53 0 1,1 0,-16.53A16.53,16.53 0 0,1 16.53,0Z" style="opacity: 0.92; stroke-width: 1.4px; fill: rgb(187, 216, 238); fill-opacity: 1; stroke: rgb(255, 255, 255); stroke-opacity: 1;"/><path class="point plotly-customdata" transform="translate(162.97,122.02)" d="M11.68,0A11.68,11.68 0 1,1 0,-11.68A11.68,11.68 0 0,1 11.68,0Z" style="opacity: 0.92; stroke-width: 1.4px; fill: rgb(155, 199, 229); fill-opacity: 1; stroke: rgb(255, 255, 255); stroke-opacity: 1;"/><path class="point plotly-customdata" transform="translate(109.98,167.21)" d="M15.75,0A15.75,15.75 0 1,1 0,-15.75A15.75,15.75 0 0,1 15.75,0Z" style="opacity: 0.92; stroke-width: 1.4px; fill: rgb(191, 218, 239); fill-opacity: 1; stroke: rgb(255, 255, 255); stroke-opacity: 1;"/><path class="point plotly-customdata" transform="translate(126.04,212.4)" d="M9,0A9,9 0 1,1 0,-9A9,9 0 0,1 9,0Z" style="opacity: 0.92; stroke-width: 1.4px; fill: rgb(180, 212, 236); fill-opacity: 1; stroke: rgb(255, 255, 255); stroke-opacity: 1;"/><path class="point plotly-customdata" transform="translate(77.24,257.6)" d="M12.86,0A12.86,12.86 0 1,1 0,-12.86A12.86,12.86 0 0,1 12.86,0Z" style="opacity: 0.92; stroke-width: 1.4px; fill: rgb(214, 231, 245); fill-opacity: 1; stroke: rgb(255, 255, 255); stroke-opacity: 1;"/><path class="point plotly-customdata" transform="translate(140.7,302.79)" d="M14.52,0A14.52,14.52 0 1,1 0,-14.52A14.52,14.52 0 0,1 14.52,0Z" style="opacity: 0.92; stroke-width: 1.4px; fill: rgb(170, 207, 233); fill-opacity: 1; stroke: rgb(255, 255, 255); stroke-opacity: 1;"/><path class="point plotly-customdata" transform="translate(70.83,347.98)" d="M16.74,0A16.74,16.74 0 1,1 0,-16.74A16.74,16.74 0 0,1 16.74,0Z" style="opacity: 0.92; stroke-width: 1.4px; fill: rgb(218, 233, 247); fill-opacity: 1; stroke: rgb(107, 114, 128); stroke-opacity: 1;"/><path class="point plotly-customdata" transform="translate(92.98,393.17)" d="M12.76,0A12.76,12.76 0 1,1 0,-12.76A12.76,12.76 0 0,1 12.76,0Z" style="opacity: 0.92; stroke-width: 1.4px; fill: rgb(203, 225, 242); fill-opacity: 1; stroke: rgb(255, 255, 255); stroke-opacity: 1;"/><path class="point plotly-customdata" transform="translate(47.36,438.37)" d="M13.26,0A13.26,13.26 0 1,1 0,-13.26A13.26,13.26 0 0,1 13.26,0Z" style="opacity: 0.92; stroke-width: 1.4px; fill: rgb(234, 242, 251); fill-opacity: 1; stroke: rgb(107, 114, 128); stroke-opacity: 1;"/></g><g class="text"><g class="textpoint" transform="translate(0,2.5)"><text x="402.55" y="31.63" text-anchor="middle" style="font-family: Arial; font-size: 10px; fill: rgb(255, 255, 255); fill-opacity: 1; white-space: pre;">2.50</text></g><g class="textpoint" transform="translate(0,2.5)"><text x="116.76" y="76.83" text-anchor="middle" style="font-family: Arial; font-size: 10px; fill: rgb(15, 23, 42); fill-opacity: 1; white-space: pre;">1.35</text></g><g class="textpoint" transform="translate(0,2.5)"><text x="162.97" y="122.02" text-anchor="middle" style="font-family: Arial; font-size: 10px; fill: rgb(255, 255, 255); fill-opacity: 1; white-space: pre;">1.53</text></g><g class="textpoint" transform="translate(0,2.5)"><text x="109.98" y="167.21" text-anchor="middle" style="font-family: Arial; font-size: 10px; fill: rgb(15, 23, 42); fill-opacity: 1; white-space: pre;">1.32</text></g><g class="textpoint" transform="translate(0,2.5)"><text x="126.04" y="212.4" text-anchor="middle" style="font-family: Arial; font-size: 10px; fill: rgb(255, 255, 255); fill-opacity: 1; white-space: pre;">1.39</text></g><g class="textpoint" transform="translate(0,2.5)"><text x="77.24" y="257.6" text-anchor="middle" style="font-family: Arial; font-size: 10px; fill: rgb(15, 23, 42); fill-opacity: 1; white-space: pre;">1.19</text></g><g class="textpoint" transform="translate(0,2.5)"><text x="140.7" y="302.79" text-anchor="middle" style="font-family: Arial; font-size: 10px; fill: rgb(255, 255, 255); fill-opacity: 1; white-space: pre;">1.45</text></g><g class="textpoint" transform="translate(0,2.5)"><text x="70.83" y="347.98" text-anchor="middle" style="font-family: Arial; font-size: 10px; fill: rgb(15, 23, 42); fill-opacity: 1; white-space: pre;">1.16</text></g><g class="textpoint" transform="translate(0,2.5)"><text x="92.98" y="393.17" text-anchor="middle" style="font-family: Arial; font-size: 10px; fill: rgb(15, 23, 42); fill-opacity: 1; white-space: pre;">1.25</text></g><g class="textpoint" transform="translate(0,2.5)"><text x="47.36" y="438.37" text-anchor="middle" style="font-family: Arial; font-size: 10px; fill: rgb(15, 23, 42); fill-opacity: 1; white-space: pre;">1.07</text></g></g></g></g></g></g><g class="zerolinelayer-above"/><path class="xlines-above crisp" d="M0,0" style="fill: none;"/><path class="ylines-above crisp" d="M0,0" style="fill: none;"/><g class="overlines-above"/><g class="xaxislayer-above"><g class="xtick"><text text-anchor="middle" x="0" y="561" transform="translate(259.86,0)" style="font-family: Arial; font-size: 12px; fill: rgb(15, 23, 42); fill-opacity: 1; white-space: pre;">1</text></g><g class="xtick"><text text-anchor="middle" x="0" y="561" style="font-family: Arial; font-size: 12px; fill: rgb(15, 23, 42); fill-opacity: 1; white-space: pre;" transform="translate(384.28999999999996,0)">1.5</text></g><g class="xtick"><text text-anchor="middle" x="0" y="561" style="font-family: Arial; font-size: 12px; fill: rgb(15, 23, 42); fill-opacity: 1; white-space: pre;" transform="translate(508.71,0)">2</text></g><g class="xtick"><text text-anchor="middle" x="0" y="561" style="font-family: Arial; font-size: 12px; fill: rgb(15, 23, 42); fill-opacity: 1; white-space: pre;" transform="translate(633.13,0)">2.5</text></g><g class="xtick"><text text-anchor="middle" x="0" y="561" style="font-family: Arial; font-size: 12px; fill: rgb(15, 23, 42); fill-opacity: 1; white-space: pre;" transform="translate(757.56,0)">3</text></g></g><g class="yaxislayer-above"><g class="ytick"><text text-anchor="end" x="229" y="4.199999999999999" transform="translate(0,109.63)" style="font-family: Arial; font-size: 12px; fill: rgb(15, 23, 42); fill-opacity: 1; white-space: pre;">Cognition | Internet</text></g><g class="ytick"><text text-anchor="end" x="229" y="4.199999999999999" style="font-family: Arial; font-size: 12px; fill: rgb(15, 23, 42); fill-opacity: 1; white-space: pre;" transform="translate(0,154.82999999999998)">Cognition | Social</text></g><g class="ytick"><text text-anchor="end" x="229" y="4.199999999999999" style="font-family: Arial; font-size: 12px; fill: rgb(15, 23, 42); fill-opacity: 1; white-space: pre;" transform="translate(0,200.01999999999998)">No ADL limitation | Internet</text></g><g class="ytick"><text text-anchor="end" x="229" y="4.199999999999999" style="font-family: Arial; font-size: 12px; fill: rgb(15, 23, 42); fill-opacity: 1; white-space: pre;" transform="translate(0,245.21)">No ADL limitation | Social</text></g><g class="ytick"><text text-anchor="end" x="229" y="4.199999999999999" style="font-family: Arial; font-size: 12px; fill: rgb(15, 23, 42); fill-opacity: 1; white-space: pre;" transform="translate(0,290.4)">Not depressive | Internet</text></g><g class="ytick"><text text-anchor="end" x="229" y="4.199999999999999" style="font-family: Arial; font-size: 12px; fill: rgb(15, 23, 42); fill-opacity: 1; white-space: pre;" transform="translate(0,335.6)">Not depressive | Social</text></g><g class="ytick"><text text-anchor="end" x="229" y="4.199999999999999" style="font-family: Arial; font-size: 12px; fill: rgb(15, 23, 42); fill-opacity: 1; white-space: pre;" transform="translate(0,380.79)">Good SRH | Internet</text></g><g class="ytick"><text text-anchor="end" x="229" y="4.199999999999999" style="font-family: Arial; font-size: 12px; fill: rgb(15, 23, 42); fill-opacity: 1; white-space: pre;" transform="translate(0,425.98)">Good SRH | Social</text></g><g class="ytick"><text text-anchor="end" x="229" y="4.199999999999999" style="font-family: Arial; font-size: 12px; fill: rgb(15, 23, 42); fill-opacity: 1; white-space: pre;" transform="translate(0,471.17)">No multimorbidity | Internet</text></g><g class="ytick"><text text-anchor="end" x="229" y="4.199999999999999" style="font-family: Arial; font-size: 12px; fill: rgb(15, 23, 42); fill-opacity: 1; white-space: pre;" transform="translate(0,516.37)">No multimorbidity | Social</text></g></g><g class="overaxes-above"/></g></g><g class="polarlayer"/><g class="smithlayer"/><g class="ternarylayer"/><g class="geolayer"/><g class="funnelarealayer"/><g class="pielayer"/><g class="iciclelayer"/><g class="treemaplayer"/><g class="sunburstlayer"/><g class="glimages"/><defs id="topdefs-645a73"><g class="clips"/></defs><g class="layer-above"><g class="imagelayer"/><g class="shapelayer"><g class="shape-group" data-index="0" clip-path="url(#clip645a73x)"><path data-index="0" fill-rule="evenodd" d="M259.86,548L259.86,78" style="opacity: 1; stroke: rgb(107, 114, 128); stroke-opacity: 1; fill: rgb(0, 0, 0); fill-opacity: 0; stroke-dasharray: 9px, 9px; stroke-width: 1.3px;"/></g></g></g><g class="infolayer"><g class="cbeb5049 colorbar" transform="translate(230,78)"><rect class="cbbg" x="550.5" y="61" width="50.0078125" height="349" style="fill: rgb(0, 0, 0); fill-opacity: 0; stroke: rgb(68, 68, 68); stroke-opacity: 1; stroke-width: 0;"/><g class="cbfills" transform="translate(0,92)"><rect class="cbfill gradient_filled" style="fill: url('#g645a73-cbeb5049');" x="561" y="0" width="12" height="307"/></g><g class="cblines" transform="translate(0,92)"/><g class="cbaxis crisp" transform="translate(0,-78)"><g class="ycbeb5049tick"><text text-anchor="start" x="576.4" y="4.199999999999999" transform="translate(0,449.1)" style="font-family: Arial; font-size: 12px; fill: rgb(15, 23, 42); fill-opacity: 1; white-space: pre;">1.2</text></g><g class="ycbeb5049tick"><text text-anchor="start" x="576.4" y="4.199999999999999" style="font-family: Arial; font-size: 12px; fill: rgb(15, 23, 42); fill-opacity: 1; white-space: pre;" transform="translate(0,406.09000000000003)">1.4</text></g><g class="ycbeb5049tick"><text text-anchor="start" x="576.4" y="4.199999999999999" style="font-family: Arial; font-size: 12px; fill: rgb(15, 23, 42); fill-opacity: 1; white-space: pre;" transform="translate(0,363.07000000000005)">1.6</text></g><g class="ycbeb5049tick"><text text-anchor="start" x="576.4" y="4.199999999999999" style="font-family: Arial; font-size: 12px; fill: rgb(15, 23, 42); fill-opacity: 1; white-space: pre;" transform="translate(0,320.05000000000007)">1.8</text></g><g class="ycbeb5049tick"><text text-anchor="start" x="576.4" y="4.199999999999999" style="font-family: Arial; font-size: 12px; fill: rgb(15, 23, 42); fill-opacity: 1; white-space: pre;" transform="translate(0,277.04)">2</text></g><g class="ycbeb5049tick"><text text-anchor="start" x="576.4" y="4.199999999999999" style="font-family: Arial; font-size: 12px; fill: rgb(15, 23, 42); fill-opacity: 1; white-space: pre;" transform="translate(0,234.02000000000004)">2.2</text></g><g class="ycbeb5049tick"><text text-anchor="start" x="576.4" y="4.199999999999999" style="font-family: Arial; font-size: 12px; fill: rgb(15, 23, 42); fill-opacity: 1; white-space: pre;" transform="translate(0,191.00000000000003)">2.4</text></g></g><g class="cbtitleunshift" transform="translate(-230,-78)"><g class="cbtitle" transform="translate(-0.5,-0.5)"><text class="ycbeb5049title" x="790.8" y="162.5" text-anchor="start" style="opacity: 1; font-family: Arial; font-size: 14px; fill: rgb(15, 23, 42); fill-opacity: 1; white-space: pre;">OR</text></g></g><rect class="cboutline" x="561" y="92" width="12" height="307" style="stroke: rgb(68, 68, 68); stroke-opacity: 1; fill: none; stroke-width: 1;"/></g><g class="g-gtitle"><text class="gtitle" x="10.32" y="39" text-anchor="start" dy="0em" style="opacity: 1; font-family: Arial; font-size: 20px; fill: rgb(15, 23, 42); fill-opacity: 1; white-space: pre;">Fig.5 | Domain-specific uncertainty bubble strip</text></g><g class="g-xtitle"><text class="xtitle" x="500" y="588.3" text-anchor="middle" style="opacity: 1; font-family: Arial; font-size: 14px; fill: rgb(15, 23, 42); fill-opacity: 1; white-space: pre;">Odds ratio</text></g><g class="g-ytitle"/><g class="annotation" data-index="0" style="opacity: 1;"><g class="annotation-text-g" transform="rotate(0,587,643.9)"><g class="cursor-pointer" transform="translate(404,636)"><rect class="bg" x="0.5" y="0.5" width="365" height="14" style="stroke-width: 1px; stroke: rgb(0, 0, 0); stroke-opacity: 0; fill: rgb(0, 0, 0); fill-opacity: 0;"/><text class="annotation-text" text-anchor="middle" x="182.9375" y="11" style="font-family: Arial; font-size: 10px; fill: rgb(107, 114, 128); fill-opacity: 1; white-space: pre;">Bubble size reflects CI width; grey outline indicates confidence interval includes 1.</text></g></g></g></g></svg>