<svg class="main-svg" xmlns="http://www.w3.org/2000/svg" xmlns:xlink="http://www.w3.org/1999/xlink" width="1800" height="1360" style="" viewBox="0 0 900 680"><rect x="0" y="0" width="900" height="680" style="fill: rgb(255, 255, 255); fill-opacity: 1;"/><defs id="defs-a4fb7d"><g class="clips"><clipPath id="clipa4fb7dxyplot" class="plotclip"><rect width="455" height="512"/></clipPath><clipPath class="axesclip" id="clipa4fb7dx"><rect x="275" y="0" width="455" height="680"/></clipPath><clipPath class="axesclip" id="clipa4fb7dy"><rect x="0" y="55" width="900" height="512"/></clipPath><clipPath class="axesclip" id="clipa4fb7dxy"><rect x="275" y="55" width="455" height="512"/></clipPath></g><g class="gradients"/><g class="patterns"/></defs><g class="bglayer"/><g class="layer-below"><g class="imagelayer"/><g class="shapelayer"/></g><g class="cartesianlayer"><g class="subplot xy"><g class="layer-subplot"><g class="shapelayer"/><g class="imagelayer"/></g><g class="minor-gridlayer"><g class="x"/><g class="y"/></g><g class="gridlayer"><g class="x"><path class="xgrid crisp" transform="translate(340.57,0)" d="M0,55v512" style="stroke: rgb(229, 231, 235); stroke-opacity: 1; stroke-width: 1px;"/><path class="xgrid crisp" transform="translate(474.53999999999996,0)" d="M0,55v512" style="stroke: rgb(229, 231, 235); stroke-opacity: 1; stroke-width: 1px;"/><path class="xgrid crisp" transform="translate(569.5899999999999,0)" d="M0,55v512" style="stroke: rgb(229, 231, 235); stroke-opacity: 1; stroke-width: 1px;"/><path class="xgrid crisp" transform="translate(643.31,0)" d="M0,55v512" style="stroke: rgb(229, 231, 235); stroke-opacity: 1; stroke-width: 1px;"/><path class="xgrid crisp" transform="translate(703.55,0)" d="M0,55v512" style="stroke: rgb(229, 231, 235); stroke-opacity: 1; stroke-width: 1px;"/></g><g class="y"/></g><g class="zerolinelayer"/><g class="layer-between"><g class="shapelayer"/><g class="imagelayer"/></g><path class="xlines-below"/><path class="ylines-below"/><g class="overlines-below"/><g class="xaxislayer-below"/><g class="yaxislayer-below"/><g class="overaxes-below"/><g class="overplot"><g class="xy" transform="translate(275,55)" clip-path="url(#clipa4fb7dxyplot)"><g class="scatterlayer mlayer"><g class="trace scatter trace951dec" style="stroke-miterlimit: 2; opacity: 1;"><g class="fills"/><g class="errorbars"><g class="errorbar"><path class="xerror" d="M419.2,29.479999999999997v6m0,-3H316.81m0,-3v6" style="vector-effect: none; stroke-width: 1.3px; stroke: rgb(37, 99, 235); stroke-opacity: 1;"/></g><g class="errorbar"><path class="xerror" d="M229.19,79.15v6m0,-3H185.08m0,-3v6" style="vector-effect: none; stroke-width: 1.3px; stroke: rgb(37, 99, 235); stroke-opacity: 1;"/></g><g class="errorbar"><path class="xerror" d="M185.19,128.82v6m0,-3H161.89m0,-3v6" style="vector-effect: none; stroke-width: 1.3px; stroke: rgb(37, 99, 235); stroke-opacity: 1;"/></g><g class="errorbar"><path class="xerror" d="M223.6,178.49v6m0,-3H150.98m0,-3v6" style="vector-effect: none; stroke-width: 1.3px; stroke: rgb(37, 99, 235); stroke-opacity: 1;"/></g><g class="errorbar"><path class="xerror" d="M172.89,228.16v6m0,-3H107.62m0,-3v6" style="vector-effect: none; stroke-width: 1.3px; stroke: rgb(37, 99, 235); stroke-opacity: 1;"/></g></g><g class="lines"/><g class="points"><path class="point" transform="translate(368,32.48)" d="M5.5,0A5.5,5.5 0 1,1 0,-5.5A5.5,5.5 0 0,1 5.5,0Z" style="opacity: 1; stroke-width: 0.8px; fill: rgb(37, 99, 235); fill-opacity: 1; stroke: rgb(255, 255, 255); stroke-opacity: 1;"/><path class="point" transform="translate(207.13,82.15)" d="M5.5,0A5.5,5.5 0 1,1 0,-5.5A5.5,5.5 0 0,1 5.5,0Z" style="opacity: 1; stroke-width: 0.8px; fill: rgb(37, 99, 235); fill-opacity: 1; stroke: rgb(255, 255, 255); stroke-opacity: 1;"/><path class="point" transform="translate(173.54,131.82)" d="M5.5,0A5.5,5.5 0 1,1 0,-5.5A5.5,5.5 0 0,1 5.5,0Z" style="opacity: 1; stroke-width: 0.8px; fill: rgb(37, 99, 235); fill-opacity: 1; stroke: rgb(255, 255, 255); stroke-opacity: 1;"/><path class="point" transform="translate(187.29,181.49)" d="M5.5,0A5.5,5.5 0 1,1 0,-5.5A5.5,5.5 0 0,1 5.5,0Z" style="opacity: 1; stroke-width: 0.8px; fill: rgb(37, 99, 235); fill-opacity: 1; stroke: rgb(255, 255, 255); stroke-opacity: 1;"/><path class="point" transform="translate(140.25,231.16)" d="M5.5,0A5.5,5.5 0 1,1 0,-5.5A5.5,5.5 0 0,1 5.5,0Z" style="opacity: 1; stroke-width: 0.8px; fill: rgb(37, 99, 235); fill-opacity: 1; stroke: rgb(255, 255, 255); stroke-opacity: 1;"/></g><g class="text"><g class="textpoint" transform="translate(7.875,2.5)"><text x="368" y="32.48" text-anchor="start" style="font-family: Arial; font-size: 10px; fill: rgb(17, 24, 39); fill-opacity: 1; white-space: pre;">2.50 (2.14-2.92)</text></g><g class="textpoint" transform="translate(7.875,2.5)"><text x="207.13" y="82.15" text-anchor="start" style="font-family: Arial; font-size: 10px; fill: rgb(17, 24, 39); fill-opacity: 1; white-space: pre;">1.53 (1.44-1.64)</text></g><g class="textpoint" transform="translate(7.875,2.5)"><text x="173.54" y="131.82" text-anchor="start" style="font-family: Arial; font-size: 10px; fill: rgb(17, 24, 39); fill-opacity: 1; white-space: pre;">1.39 (1.34-1.44)</text></g><g class="textpoint" transform="translate(7.875,2.5)"><text x="187.29" y="181.49" text-anchor="start" style="font-family: Arial; font-size: 10px; fill: rgb(17, 24, 39); fill-opacity: 1; white-space: pre;">1.45 (1.29-1.61)</text></g><g class="textpoint" transform="translate(7.875,2.5)"><text x="140.25" y="231.16" text-anchor="start" style="font-family: Arial; font-size: 10px; fill: rgb(17, 24, 39); fill-opacity: 1; white-space: pre;">1.25 (1.14-1.38)</text></g></g></g><g class="trace scatter traceb759ea" style="stroke-miterlimit: 2; opacity: 1;"><g class="fills"/><g class="errorbars"><g class="errorbar"><path class="xerror" d="M213.15,277.84v6m0,-3H115.91m0,-3v6" style="vector-effect: none; stroke-width: 1.3px; stroke: rgb(22, 163, 74); stroke-opacity: 1;"/></g><g class="errorbar"><path class="xerror" d="M203.54,327.51v6m0,-3H112.02m0,-3v6" style="vector-effect: none; stroke-width: 1.3px; stroke: rgb(22, 163, 74); stroke-opacity: 1;"/></g><g class="errorbar"><path class="xerror" d="M158.06,377.18v6m0,-3H88.25m0,-3v6" style="vector-effect: none; stroke-width: 1.3px; stroke: rgb(22, 163, 74); stroke-opacity: 1;"/></g><g class="errorbar"><path class="xerror" d="M173.4,426.85v6m0,-3H58.44m0,-3v6" style="vector-effect: none; stroke-width: 1.3px; stroke: rgb(22, 163, 74); stroke-opacity: 1;"/></g><g class="errorbar"><path class="xerror" d="M129.31,476.53v6m0,-3H46.73m0,-3v6" style="vector-effect: none; stroke-width: 1.3px; stroke: rgb(22, 163, 74); stroke-opacity: 1;"/></g></g><g class="lines"/><g class="points"><path class="point" transform="translate(164.53,280.84)" d="M5.5,0A5.5,5.5 0 1,1 0,-5.5A5.5,5.5 0 0,1 5.5,0Z" style="opacity: 1; stroke-width: 0.8px; fill: rgb(22, 163, 74); fill-opacity: 1; stroke: rgb(255, 255, 255); stroke-opacity: 1;"/><path class="point" transform="translate(157.78,330.51)" d="M5.5,0A5.5,5.5 0 1,1 0,-5.5A5.5,5.5 0 0,1 5.5,0Z" style="opacity: 1; stroke-width: 0.8px; fill: rgb(22, 163, 74); fill-opacity: 1; stroke: rgb(255, 255, 255); stroke-opacity: 1;"/><path class="point" transform="translate(123.16,380.18)" d="M5.5,0A5.5,5.5 0 1,1 0,-5.5A5.5,5.5 0 0,1 5.5,0Z" style="opacity: 1; stroke-width: 0.8px; fill: rgb(22, 163, 74); fill-opacity: 1; stroke: rgb(255, 255, 255); stroke-opacity: 1;"/><path class="point" transform="translate(115.92,429.85)" d="M5.5,0A5.5,5.5 0 1,1 0,-5.5A5.5,5.5 0 0,1 5.5,0Z" style="opacity: 1; stroke-width: 0.8px; fill: rgb(22, 163, 74); fill-opacity: 1; stroke: rgb(255, 255, 255); stroke-opacity: 1;"/><path class="point" transform="translate(88.02,479.53)" d="M5.5,0A5.5,5.5 0 1,1 0,-5.5A5.5,5.5 0 0,1 5.5,0Z" style="opacity: 1; stroke-width: 0.8px; fill: rgb(22, 163, 74); fill-opacity: 1; stroke: rgb(255, 255, 255); stroke-opacity: 1;"/></g><g class="text"><g class="textpoint" transform="translate(7.875,2.5)"><text x="164.53" y="280.84" text-anchor="start" style="font-family: Arial; font-size: 10px; fill: rgb(17, 24, 39); fill-opacity: 1; white-space: pre;">1.35 (1.16-1.56)</text></g><g class="textpoint" transform="translate(7.875,2.5)"><text x="157.78" y="330.51" text-anchor="start" style="font-family: Arial; font-size: 10px; fill: rgb(17, 24, 39); fill-opacity: 1; white-space: pre;">1.32 (1.15-1.52)</text></g><g class="textpoint" transform="translate(7.875,2.5)"><text x="123.16" y="380.18" text-anchor="start" style="font-family: Arial; font-size: 10px; fill: rgb(17, 24, 39); fill-opacity: 1; white-space: pre;">1.19 (1.07-1.32)</text></g><g class="textpoint" transform="translate(7.875,2.5)"><text x="115.92" y="429.85" text-anchor="start" style="font-family: Arial; font-size: 10px; fill: rgb(17, 24, 39); fill-opacity: 1; white-space: pre;">1.16 (0.98-1.39)</text></g><g class="textpoint" transform="translate(7.875,2.5)"><text x="88.02" y="479.53" text-anchor="start" style="font-family: Arial; font-size: 10px; fill: rgb(17, 24, 39); fill-opacity: 1; white-space: pre;">1.07 (0.94-1.21)</text></g></g></g></g></g></g><g class="zerolinelayer-above"/><path class="xlines-above crisp" d="M274,567.5H730" style="fill: none; stroke-width: 1px; stroke: rgb(156, 163, 175); stroke-opacity: 1;"/><path class="ylines-above crisp" d="M274.5,55V567" style="fill: none; stroke-width: 1px; stroke: rgb(156, 163, 175); stroke-opacity: 1;"/><g class="overlines-above"/><g class="xaxislayer-above"><path class="xtick ticks crisp" d="M0,568v5" transform="translate(340.57,0)" style="stroke: rgb(68, 68, 68); stroke-opacity: 1; stroke-width: 1px;"/><path class="xtick ticks crisp" d="M0,568v5" transform="translate(474.53999999999996,0)" style="stroke: rgb(68, 68, 68); stroke-opacity: 1; stroke-width: 1px;"/><path class="xtick ticks crisp" d="M0,568v5" transform="translate(569.5899999999999,0)" style="stroke: rgb(68, 68, 68); stroke-opacity: 1; stroke-width: 1px;"/><path class="xtick ticks crisp" d="M0,568v5" transform="translate(643.31,0)" style="stroke: rgb(68, 68, 68); stroke-opacity: 1; stroke-width: 1px;"/><path class="xtick ticks crisp" d="M0,568v5" transform="translate(703.55,0)" style="stroke: rgb(68, 68, 68); stroke-opacity: 1; stroke-width: 1px;"/><g class="xtick"><text text-anchor="middle" x="0" y="587.4" transform="translate(340.57,0)" style="font-family: Arial; font-size: 12px; fill: rgb(17, 24, 39); fill-opacity: 1; white-space: pre;">1</text></g><g class="xtick"><text text-anchor="middle" x="0" y="587.4" style="font-family: Arial; font-size: 12px; fill: rgb(17, 24, 39); fill-opacity: 1; white-space: pre;" transform="translate(474.53999999999996,0)">1.5</text></g><g class="xtick"><text text-anchor="middle" x="0" y="587.4" style="font-family: Arial; font-size: 12px; fill: rgb(17, 24, 39); fill-opacity: 1; white-space: pre;" transform="translate(569.5899999999999,0)">2</text></g><g class="xtick"><text text-anchor="middle" x="0" y="587.4" style="font-family: Arial; font-size: 12px; fill: rgb(17, 24, 39); fill-opacity: 1; white-space: pre;" transform="translate(643.31,0)">2.5</text></g><g class="xtick"><text text-anchor="middle" x="0" y="587.4" style="font-family: Arial; font-size: 12px; fill: rgb(17, 24, 39); fill-opacity: 1; white-space: pre;" transform="translate(703.55,0)">3</text></g></g><g class="yaxislayer-above"><g class="ytick"><text text-anchor="end" x="271.6" y="4.199999999999999" transform="translate(0,534.53)" style="font-family: Arial; font-size: 12px; fill: rgb(17, 24, 39); fill-opacity: 1; white-space: pre;">No multimorbidity | Social participation</text></g><g class="ytick"><text text-anchor="end" x="271.6" y="4.199999999999999" transform="translate(0,484.85)" style="font-family: Arial; font-size: 12px; fill: rgb(17, 24, 39); fill-opacity: 1; white-space: pre;">Good self-rated health | Social participation</text></g><g class="ytick"><text text-anchor="end" x="271.6" y="4.199999999999999" transform="translate(0,435.18)" style="font-family: Arial; font-size: 12px; fill: rgb(17, 24, 39); fill-opacity: 1; white-space: pre;">Not depressive | Social participation</text></g><g class="ytick"><text text-anchor="end" x="271.6" y="4.199999999999999" transform="translate(0,385.51)" style="font-family: Arial; font-size: 12px; fill: rgb(17, 24, 39); fill-opacity: 1; white-space: pre;">No ADL limitation | Social participation</text></g><g class="ytick"><text text-anchor="end" x="271.6" y="4.199999999999999" transform="translate(0,335.84)" style="font-family: Arial; font-size: 12px; fill: rgb(17, 24, 39); fill-opacity: 1; white-space: pre;">Cognition not low | Social participation</text></g><g class="ytick"><text text-anchor="end" x="271.6" y="4.199999999999999" transform="translate(0,286.15999999999997)" style="font-family: Arial; font-size: 12px; fill: rgb(17, 24, 39); fill-opacity: 1; white-space: pre;">No multimorbidity | Internet use</text></g><g class="ytick"><text text-anchor="end" x="271.6" y="4.199999999999999" transform="translate(0,236.49)" style="font-family: Arial; font-size: 12px; fill: rgb(17, 24, 39); fill-opacity: 1; white-space: pre;">Good self-rated health | Internet use</text></g><g class="ytick"><text text-anchor="end" x="271.6" y="4.199999999999999" transform="translate(0,186.82)" style="font-family: Arial; font-size: 12px; fill: rgb(17, 24, 39); fill-opacity: 1; white-space: pre;">Not depressive | Internet use</text></g><g class="ytick"><text text-anchor="end" x="271.6" y="4.199999999999999" transform="translate(0,137.15)" style="font-family: Arial; font-size: 12px; fill: rgb(17, 24, 39); fill-opacity: 1; white-space: pre;">No ADL limitation | Internet use</text></g><g class="ytick"><text text-anchor="end" x="271.6" y="4.199999999999999" transform="translate(0,87.47999999999999)" style="font-family: Arial; font-size: 12px; fill: rgb(17, 24, 39); fill-opacity: 1; white-space: pre;">Cognition not low | Internet use</text></g></g><g class="overaxes-above"/></g></g><g class="polarlayer"/><g class="smithlayer"/><g class="ternarylayer"/><g class="geolayer"/><g class="funnelarealayer"/><g class="pielayer"/><g class="iciclelayer"/><g class="treemaplayer"/><g class="sunburstlayer"/><g class="glimages"/><defs id="topdefs-a4fb7d"><g class="clips"/><clipPath id="legenda4fb7d"><rect width="255" height="29" x="0" y="0"/></clipPath></defs><g class="layer-above"><g class="imagelayer"/><g class="shapelayer"><g class="shape-group" data-index="0" clip-path="url(#clipa4fb7dx)"><path data-index="0" fill-rule="evenodd" d="M340.57,567L340.57,55" style="opacity: 1; stroke: rgb(75, 85, 99); stroke-opacity: 1; fill: rgb(0, 0, 0); fill-opacity: 0; stroke-dasharray: 9px, 9px; stroke-width: 1px;"/></g></g></g><g class="infolayer"><g class="legend" pointer-events="all" transform="translate(375,638.6800000000001)"><rect class="bg" shape-rendering="crispEdges" style="stroke: rgb(68, 68, 68); stroke-opacity: 1; fill: rgb(255, 255, 255); fill-opacity: 1; stroke-width: 0px;" width="255" height="29" x="0" y="0"/><g class="scrollbox" transform="" clip-path="url(#legenda4fb7d)"><g class="groups"><g class="traces" transform="translate(0,14.5)" style="opacity: 1;"><text class="legendtext" text-anchor="start" x="40" y="4.680000000000001" style="font-family: Arial; font-size: 12px; fill: rgb(17, 24, 39); fill-opacity: 1; white-space: pre;">Internet use</text><g class="layers" style="opacity: 1;"><g class="legendfill"/><g class="legendlines"/><g class="legendsymbols"><g class="legendpoints"><path class="scatterpts" transform="translate(20,0)" d="M5.5,0A5.5,5.5 0 1,1 0,-5.5A5.5,5.5 0 0,1 5.5,0Z" style="opacity: 1; stroke-width: 0.8px; fill: rgb(37, 99, 235); fill-opacity: 1; stroke: rgb(255, 255, 255); stroke-opacity: 1;"/></g></g></g><rect class="legendtoggle" x="0" y="-9.5" width="106.201171875" height="19" style="fill: rgb(0, 0, 0); fill-opacity: 0;"/></g><g class="traces" transform="translate(108.701171875,14.5)" style="opacity: 1;"><text class="legendtext" text-anchor="start" x="40" y="4.680000000000001" style="font-family: Arial; font-size: 12px; fill: rgb(17, 24, 39); fill-opacity: 1; white-space: pre;">Social participation</text><g class="layers" style="opacity: 1;"><g class="legendfill"/><g class="legendlines"/><g class="legendsymbols"><g class="legendpoints"><path class="scatterpts" transform="translate(20,0)" d="M5.5,0A5.5,5.5 0 1,1 0,-5.5A5.5,5.5 0 0,1 5.5,0Z" style="opacity: 1; stroke-width: 0.8px; fill: rgb(22, 163, 74); fill-opacity: 1; stroke: rgb(255, 255, 255); stroke-opacity: 1;"/></g></g></g><rect class="legendtoggle" x="0" y="-9.5" width="143.548828125" height="19" style="fill: rgb(0, 0, 0); fill-opacity: 0;"/></g></g></g><rect class="scrollbar" rx="20" ry="3" width="0" height="0" style="fill: rgb(128, 139, 164); fill-opacity: 1;" x="0" y="0"/></g><g class="g-gtitle"><text class="gtitle" x="9" y="27.5" text-anchor="start" dy="0em" style="opacity: 1; font-family: Arial; font-size: 18px; fill: rgb(17, 24, 39); fill-opacity: 1; white-space: pre;">Domain-specific healthy-ageing components</text></g><g class="g-xtitle"><text class="xtitle" x="502.5" y="614.700390625" text-anchor="middle" style="opacity: 1; font-family: Arial; font-size: 14px; fill: rgb(17, 24, 39); fill-opacity: 1; white-space: pre;">Odds ratio</text></g><g class="g-ytitle"/></g></svg>