<svg class="main-svg" xmlns="http://www.w3.org/2000/svg" xmlns:xlink="http://www.w3.org/1999/xlink" width="1800" height="1240" style="" viewBox="0 0 900 620"><rect x="0" y="0" width="900" height="620" style="fill: rgb(255, 255, 255); fill-opacity: 1;"/><defs id="defs-3f2961"><g class="clips"><clipPath id="clip3f2961xyplot" class="plotclip"><rect width="460" height="456"/></clipPath><clipPath class="axesclip" id="clip3f2961x"><rect x="270" y="0" width="460" height="620"/></clipPath><clipPath class="axesclip" id="clip3f2961y"><rect x="0" y="55" width="900" height="456"/></clipPath><clipPath class="axesclip" id="clip3f2961xy"><rect x="270" y="55" width="460" height="456"/></clipPath></g><g class="gradients"/><g class="patterns"/></defs><g class="bglayer"/><g class="layer-below"><g class="imagelayer"/><g class="shapelayer"/></g><g class="cartesianlayer"><g class="subplot xy"><g class="layer-subplot"><g class="shapelayer"/><g class="imagelayer"/></g><g class="minor-gridlayer"><g class="x"/><g class="y"/></g><g class="gridlayer"><g class="x"><path class="xgrid crisp" transform="translate(345.37,0)" d="M0,55v456" style="stroke: rgb(229, 231, 235); stroke-opacity: 1; stroke-width: 1px;"/><path class="xgrid crisp" transform="translate(452.87,0)" d="M0,55v456" style="stroke: rgb(229, 231, 235); stroke-opacity: 1; stroke-width: 1px;"/><path class="xgrid crisp" transform="translate(543.77,0)" d="M0,55v456" style="stroke: rgb(229, 231, 235); stroke-opacity: 1; stroke-width: 1px;"/><path class="xgrid crisp" transform="translate(622.5,0)" d="M0,55v456" style="stroke: rgb(229, 231, 235); stroke-opacity: 1; stroke-width: 1px;"/><path class="xgrid crisp" transform="translate(691.95,0)" d="M0,55v456" style="stroke: rgb(229, 231, 235); stroke-opacity: 1; stroke-width: 1px;"/></g><g class="y"/></g><g class="zerolinelayer"/><g class="layer-between"><g class="shapelayer"/><g class="imagelayer"/></g><path class="xlines-below"/><path class="ylines-below"/><g class="overlines-below"/><g class="xaxislayer-below"/><g class="yaxislayer-below"/><g class="overaxes-below"/><g class="overplot"><g class="xy" transform="translate(270,55)" clip-path="url(#clip3f2961xyplot)"><g class="scatterlayer mlayer"><g class="trace scatter trace4b3974" style="stroke-miterlimit: 2; opacity: 1;"><g class="fills"/><g class="errorbars"><g class="errorbar"><path class="xerror" d="M349.27,26.68v6m0,-3H286.42m0,-3v6" style="vector-effect: none; stroke-width: 1.3px; stroke: rgb(37, 99, 235); stroke-opacity: 1;"/></g><g class="errorbar"><path class="xerror" d="M397.59,83.34v6m0,-3H291.29m0,-3v6" style="vector-effect: none; stroke-width: 1.3px; stroke: rgb(37, 99, 235); stroke-opacity: 1;"/></g><g class="errorbar"><path class="xerror" d="M266.19,140v6m0,-3H231.24m0,-3v6" style="vector-effect: none; stroke-width: 1.3px; stroke: rgb(37, 99, 235); stroke-opacity: 1;"/></g><g class="errorbar"><path class="xerror" d="M340.16,196.67v6m0,-3H278.08m0,-3v6" style="vector-effect: none; stroke-width: 1.3px; stroke: rgb(37, 99, 235); stroke-opacity: 1;"/></g></g><g class="lines"/><g class="points"><path class="point" transform="translate(317.85,29.68)" d="M5.5,0A5.5,5.5 0 1,1 0,-5.5A5.5,5.5 0 0,1 5.5,0Z" style="opacity: 1; stroke-width: 0.8px; fill: rgb(37, 99, 235); fill-opacity: 1; stroke: rgb(255, 255, 255); stroke-opacity: 1;"/><path class="point" transform="translate(344.44,86.34)" d="M5.5,0A5.5,5.5 0 1,1 0,-5.5A5.5,5.5 0 0,1 5.5,0Z" style="opacity: 1; stroke-width: 0.8px; fill: rgb(37, 99, 235); fill-opacity: 1; stroke: rgb(255, 255, 255); stroke-opacity: 1;"/><path class="point" transform="translate(248.71,143)" d="M5.5,0A5.5,5.5 0 1,1 0,-5.5A5.5,5.5 0 0,1 5.5,0Z" style="opacity: 1; stroke-width: 0.8px; fill: rgb(37, 99, 235); fill-opacity: 1; stroke: rgb(255, 255, 255); stroke-opacity: 1;"/><path class="point" transform="translate(309.12,199.67)" d="M5.5,0A5.5,5.5 0 1,1 0,-5.5A5.5,5.5 0 0,1 5.5,0Z" style="opacity: 1; stroke-width: 0.8px; fill: rgb(37, 99, 235); fill-opacity: 1; stroke: rgb(255, 255, 255); stroke-opacity: 1;"/></g><g class="text"><g class="textpoint" transform="translate(7.875,2.5)"><text x="317.85" y="29.68" text-anchor="start" style="font-family: Arial; font-size: 10px; fill: rgb(17, 24, 39); fill-opacity: 1; white-space: pre;">1.51 (1.43-1.59)</text></g><g class="textpoint" transform="translate(7.875,2.5)"><text x="344.44" y="86.34" text-anchor="start" style="font-family: Arial; font-size: 10px; fill: rgb(17, 24, 39); fill-opacity: 1; white-space: pre;">1.58 (1.44-1.73)</text></g><g class="textpoint" transform="translate(7.875,2.5)"><text x="248.71" y="143" text-anchor="start" style="font-family: Arial; font-size: 10px; fill: rgb(17, 24, 39); fill-opacity: 1; white-space: pre;">1.34 (1.30-1.38)</text></g><g class="textpoint" transform="translate(7.875,2.5)"><text x="309.12" y="199.67" text-anchor="start" style="font-family: Arial; font-size: 10px; fill: rgb(17, 24, 39); fill-opacity: 1; white-space: pre;">1.49 (1.41-1.57)</text></g></g></g><g class="trace scatter trace90e28c" style="stroke-miterlimit: 2; opacity: 1;"><g class="fills"/><g class="errorbars"><g class="errorbar"><path class="xerror" d="M273.74,253.32999999999998v6m0,-3H105.71m0,-3v6" style="vector-effect: none; stroke-width: 1.3px; stroke: rgb(22, 163, 74); stroke-opacity: 1;"/></g><g class="errorbar"><path class="xerror" d="M326,310v6m0,-3H113.17m0,-3v6" style="vector-effect: none; stroke-width: 1.3px; stroke: rgb(22, 163, 74); stroke-opacity: 1;"/></g><g class="errorbar"><path class="xerror" d="M215.64,366.66v6m0,-3H99.4m0,-3v6" style="vector-effect: none; stroke-width: 1.3px; stroke: rgb(22, 163, 74); stroke-opacity: 1;"/></g><g class="errorbar"><path class="xerror" d="M267.7,423.33v6m0,-3H99.37m0,-3v6" style="vector-effect: none; stroke-width: 1.3px; stroke: rgb(22, 163, 74); stroke-opacity: 1;"/></g></g><g class="lines"/><g class="points"><path class="point" transform="translate(189.73,256.33)" d="M5.5,0A5.5,5.5 0 1,1 0,-5.5A5.5,5.5 0 0,1 5.5,0Z" style="opacity: 1; stroke-width: 0.8px; fill: rgb(22, 163, 74); fill-opacity: 1; stroke: rgb(255, 255, 255); stroke-opacity: 1;"/><path class="point" transform="translate(219.59,313)" d="M5.5,0A5.5,5.5 0 1,1 0,-5.5A5.5,5.5 0 0,1 5.5,0Z" style="opacity: 1; stroke-width: 0.8px; fill: rgb(22, 163, 74); fill-opacity: 1; stroke: rgb(255, 255, 255); stroke-opacity: 1;"/><path class="point" transform="translate(157.52,369.66)" d="M5.5,0A5.5,5.5 0 1,1 0,-5.5A5.5,5.5 0 0,1 5.5,0Z" style="opacity: 1; stroke-width: 0.8px; fill: rgb(22, 163, 74); fill-opacity: 1; stroke: rgb(255, 255, 255); stroke-opacity: 1;"/><path class="point" transform="translate(183.54,426.33)" d="M5.5,0A5.5,5.5 0 1,1 0,-5.5A5.5,5.5 0 0,1 5.5,0Z" style="opacity: 1; stroke-width: 0.8px; fill: rgb(22, 163, 74); fill-opacity: 1; stroke: rgb(255, 255, 255); stroke-opacity: 1;"/></g><g class="text"><g class="textpoint" transform="translate(7.875,2.5)"><text x="189.73" y="256.33" text-anchor="start" style="font-family: Arial; font-size: 10px; fill: rgb(17, 24, 39); fill-opacity: 1; white-space: pre;">1.21 (1.05-1.40)</text></g><g class="textpoint" transform="translate(7.875,2.5)"><text x="219.59" y="313" text-anchor="start" style="font-family: Arial; font-size: 10px; fill: rgb(17, 24, 39); fill-opacity: 1; white-space: pre;">1.28 (1.07-1.53)</text></g><g class="textpoint" transform="translate(7.875,2.5)"><text x="157.52" y="369.66" text-anchor="start" style="font-family: Arial; font-size: 10px; fill: rgb(17, 24, 39); fill-opacity: 1; white-space: pre;">1.15 (1.04-1.27)</text></g><g class="textpoint" transform="translate(7.875,2.5)"><text x="183.54" y="426.33" text-anchor="start" style="font-family: Arial; font-size: 10px; fill: rgb(17, 24, 39); fill-opacity: 1; white-space: pre;">1.20 (1.04-1.39)</text></g></g></g></g></g></g><g class="zerolinelayer-above"/><path class="xlines-above crisp" d="M269,511.5H730" style="fill: none; stroke-width: 1px; stroke: rgb(156, 163, 175); stroke-opacity: 1;"/><path class="ylines-above crisp" d="M269.5,55V511" style="fill: none; stroke-width: 1px; stroke: rgb(156, 163, 175); stroke-opacity: 1;"/><g class="overlines-above"/><g class="xaxislayer-above"><path class="xtick ticks crisp" d="M0,512v5" transform="translate(345.37,0)" style="stroke: rgb(68, 68, 68); stroke-opacity: 1; stroke-width: 1px;"/><path class="xtick ticks crisp" d="M0,512v5" transform="translate(452.87,0)" style="stroke: rgb(68, 68, 68); stroke-opacity: 1; stroke-width: 1px;"/><path class="xtick ticks crisp" d="M0,512v5" transform="translate(543.77,0)" style="stroke: rgb(68, 68, 68); stroke-opacity: 1; stroke-width: 1px;"/><path class="xtick ticks crisp" d="M0,512v5" transform="translate(622.5,0)" style="stroke: rgb(68, 68, 68); stroke-opacity: 1; stroke-width: 1px;"/><path class="xtick ticks crisp" d="M0,512v5" transform="translate(691.95,0)" style="stroke: rgb(68, 68, 68); stroke-opacity: 1; stroke-width: 1px;"/><g class="xtick"><text text-anchor="middle" x="0" y="531.4" transform="translate(345.37,0)" style="font-family: Arial; font-size: 12px; fill: rgb(17, 24, 39); fill-opacity: 1; white-space: pre;">1</text></g><g class="xtick"><text text-anchor="middle" x="0" y="531.4" style="font-family: Arial; font-size: 12px; fill: rgb(17, 24, 39); fill-opacity: 1; white-space: pre;" transform="translate(452.87,0)">1.2</text></g><g class="xtick"><text text-anchor="middle" x="0" y="531.4" style="font-family: Arial; font-size: 12px; fill: rgb(17, 24, 39); fill-opacity: 1; white-space: pre;" transform="translate(543.77,0)">1.4</text></g><g class="xtick"><text text-anchor="middle" x="0" y="531.4" style="font-family: Arial; font-size: 12px; fill: rgb(17, 24, 39); fill-opacity: 1; white-space: pre;" transform="translate(622.5,0)">1.6</text></g><g class="xtick"><text text-anchor="middle" x="0" y="531.4" style="font-family: Arial; font-size: 12px; fill: rgb(17, 24, 39); fill-opacity: 1; white-space: pre;" transform="translate(691.95,0)">1.8</text></g></g><g class="yaxislayer-above"><g class="ytick"><text text-anchor="end" x="266.6" y="4.199999999999999" transform="translate(0,481.33)" style="font-family: Arial; font-size: 12px; fill: rgb(17, 24, 39); fill-opacity: 1; white-space: pre;">Without cognition | Social participation</text></g><g class="ytick"><text text-anchor="end" x="266.6" y="4.199999999999999" transform="translate(0,424.66)" style="font-family: Arial; font-size: 12px; fill: rgb(17, 24, 39); fill-opacity: 1; white-space: pre;">Strict all components | Social participation</text></g><g class="ytick"><text text-anchor="end" x="266.6" y="4.199999999999999" transform="translate(0,368)" style="font-family: Arial; font-size: 12px; fill: rgb(17, 24, 39); fill-opacity: 1; white-space: pre;">Lenient 60% threshold | Social participation</text></g><g class="ytick"><text text-anchor="end" x="266.6" y="4.199999999999999" transform="translate(0,311.33)" style="font-family: Arial; font-size: 12px; fill: rgb(17, 24, 39); fill-opacity: 1; white-space: pre;">IPW attrition | Social participation</text></g><g class="ytick"><text text-anchor="end" x="266.6" y="4.199999999999999" transform="translate(0,254.67)" style="font-family: Arial; font-size: 12px; fill: rgb(17, 24, 39); fill-opacity: 1; white-space: pre;">Without cognition | Internet use</text></g><g class="ytick"><text text-anchor="end" x="266.6" y="4.199999999999999" transform="translate(0,198)" style="font-family: Arial; font-size: 12px; fill: rgb(17, 24, 39); fill-opacity: 1; white-space: pre;">Strict all components | Internet use</text></g><g class="ytick"><text text-anchor="end" x="266.6" y="4.199999999999999" transform="translate(0,141.34)" style="font-family: Arial; font-size: 12px; fill: rgb(17, 24, 39); fill-opacity: 1; white-space: pre;">Lenient 60% threshold | Internet use</text></g><g class="ytick"><text text-anchor="end" x="266.6" y="4.199999999999999" transform="translate(0,84.68)" style="font-family: Arial; font-size: 12px; fill: rgb(17, 24, 39); fill-opacity: 1; white-space: pre;">IPW attrition | Internet use</text></g></g><g class="overaxes-above"/></g></g><g class="polarlayer"/><g class="smithlayer"/><g class="ternarylayer"/><g class="geolayer"/><g class="funnelarealayer"/><g class="pielayer"/><g class="iciclelayer"/><g class="treemaplayer"/><g class="sunburstlayer"/><g class="glimages"/><defs id="topdefs-3f2961"><g class="clips"/><clipPath id="legend3f2961"><rect width="255" height="29" x="0" y="0"/></clipPath></defs><g class="layer-above"><g class="imagelayer"/><g class="shapelayer"><g class="shape-group" data-index="0" clip-path="url(#clip3f2961x)"><path data-index="0" fill-rule="evenodd" d="M345.37,511L345.37,55" style="opacity: 1; stroke: rgb(75, 85, 99); stroke-opacity: 1; fill: rgb(0, 0, 0); fill-opacity: 0; stroke-dasharray: 9px, 9px; stroke-width: 1px;"/></g></g></g><g class="infolayer"><g class="legend" pointer-events="all" transform="translate(372.5,579.4)"><rect class="bg" shape-rendering="crispEdges" style="stroke: rgb(68, 68, 68); stroke-opacity: 1; fill: rgb(255, 255, 255); fill-opacity: 1; stroke-width: 0px;" width="255" height="29" x="0" y="0"/><g class="scrollbox" transform="" clip-path="url(#legend3f2961)"><g class="groups"><g class="traces" transform="translate(0,14.5)" style="opacity: 1;"><text class="legendtext" text-anchor="start" x="40" y="4.680000000000001" style="font-family: Arial; font-size: 12px; fill: rgb(17, 24, 39); fill-opacity: 1; white-space: pre;">Internet use</text><g class="layers" style="opacity: 1;"><g class="legendfill"/><g class="legendlines"/><g class="legendsymbols"><g class="legendpoints"><path class="scatterpts" transform="translate(20,0)" d="M5.5,0A5.5,5.5 0 1,1 0,-5.5A5.5,5.5 0 0,1 5.5,0Z" style="opacity: 1; stroke-width: 0.8px; fill: rgb(37, 99, 235); fill-opacity: 1; stroke: rgb(255, 255, 255); stroke-opacity: 1;"/></g></g></g><rect class="legendtoggle" x="0" y="-9.5" width="106.201171875" height="19" style="fill: rgb(0, 0, 0); fill-opacity: 0;"/></g><g class="traces" transform="translate(108.701171875,14.5)" style="opacity: 1;"><text class="legendtext" text-anchor="start" x="40" y="4.680000000000001" style="font-family: Arial; font-size: 12px; fill: rgb(17, 24, 39); fill-opacity: 1; white-space: pre;">Social participation</text><g class="layers" style="opacity: 1;"><g class="legendfill"/><g class="legendlines"/><g class="legendsymbols"><g class="legendpoints"><path class="scatterpts" transform="translate(20,0)" d="M5.5,0A5.5,5.5 0 1,1 0,-5.5A5.5,5.5 0 0,1 5.5,0Z" style="opacity: 1; stroke-width: 0.8px; fill: rgb(22, 163, 74); fill-opacity: 1; stroke: rgb(255, 255, 255); stroke-opacity: 1;"/></g></g></g><rect class="legendtoggle" x="0" y="-9.5" width="143.548828125" height="19" style="fill: rgb(0, 0, 0); fill-opacity: 0;"/></g></g></g><rect class="scrollbar" rx="20" ry="3" width="0" height="0" style="fill: rgb(128, 139, 164); fill-opacity: 1;" x="0" y="0"/></g><g class="g-gtitle"><text class="gtitle" x="9" y="27.5" text-anchor="start" dy="0em" style="opacity: 1; font-family: Arial; font-size: 18px; fill: rgb(17, 24, 39); fill-opacity: 1; white-space: pre;">Robustness across specifications</text></g><g class="g-xtitle"><text class="xtitle" x="500" y="558.700390625" text-anchor="middle" style="opacity: 1; font-family: Arial; font-size: 14px; fill: rgb(17, 24, 39); fill-opacity: 1; white-space: pre;">Odds ratio</text></g><g class="g-ytitle"/></g></svg>